<svg width="283" height="180" viewBox="0 0 283 180" fill="none" xmlns="http://www.w3.org/2000/svg">
<path d="M161.5 135.6C136.1 135.6 115.6 115 115.6 89.7C115.6 72.9 124.6 58.3 138 50.3C135.3 49.9 132.6 49.7 129.8 49.7C98.0001 49.7 72.2001 75.5 72.2001 107.3C72.2001 139.1 98.0001 164.9 129.8 164.9C153.3 164.9 173.5 150.8 182.4 130.7C176.1 133.8 169 135.6 161.5 135.6Z" fill="#3484C4"/>
<path d="M138.7 150.1C155.7 150.1 171 142.7 181.5 131C175.4 134 168.6 135.6 161.4 135.6C136 135.6 115.5 115 115.5 89.7C115.5 72.9 124.5 58.3 137.9 50.3C135.2 49.9 132.5 49.7 129.7 49.7C112 49.7 96.2001 57.7 85.6001 70.3C82.7001 77.1 81.1001 84.7 81.1001 92.6C81.2001 124.3 107 150.1 138.7 150.1Z" fill="#0165B5"/>
<path opacity="0.4" d="M201 23.4001C202.546 23.4001 203.8 22.1464 203.8 20.6C203.8 19.0537 202.546 17.8 201 17.8C199.454 17.8 198.2 19.0537 198.2 20.6C198.2 22.1464 199.454 23.4001 201 23.4001Z" fill="#0165B5"/>
<path opacity="0.4" d="M238.9 9C240.281 9 241.4 7.88071 241.4 6.5C241.4 5.11929 240.281 4 238.9 4C237.519 4 236.4 5.11929 236.4 6.5C236.4 7.88071 237.519 9 238.9 9Z" fill="#0165B5"/>
<path opacity="0.4" d="M172 8C174.209 8 176 6.20914 176 4C176 1.79086 174.209 0 172 0C169.791 0 168 1.79086 168 4C168 6.20914 169.791 8 172 8Z" fill="#0165B5"/>
<path opacity="0.4" d="M146.9 37.8C148.502 37.8 149.8 36.5016 149.8 34.9C149.8 33.2984 148.502 32 146.9 32C145.298 32 144 33.2984 144 34.9C144 36.5016 145.298 37.8 146.9 37.8Z" fill="#0165B5"/>
<path opacity="0.4" d="M100.8 19.9001C101.794 19.9001 102.6 19.0942 102.6 18.1C102.6 17.1059 101.794 16.3 100.8 16.3C99.8059 16.3 99 17.1059 99 18.1C99 19.0942 99.8059 19.9001 100.8 19.9001Z" fill="#0165B5"/>
<path opacity="0.4" d="M63.5001 52.1C64.8256 52.1 65.9001 51.0255 65.9001 49.7C65.9001 48.3746 64.8256 47.3 63.5001 47.3C62.1746 47.3 61.1001 48.3746 61.1001 49.7C61.1001 51.0255 62.1746 52.1 63.5001 52.1Z" fill="#0165B5"/>
<path opacity="0.4" d="M159.2 119.2C161.409 119.2 163.2 117.409 163.2 115.2C163.2 112.991 161.409 111.2 159.2 111.2C156.991 111.2 155.2 112.991 155.2 115.2C155.2 117.409 156.991 119.2 159.2 119.2Z" fill="#0165B5"/>
<path opacity="0.4" d="M46.2001 122.8C47.8017 122.8 49.1001 121.502 49.1001 119.9C49.1001 118.298 47.8017 117 46.2001 117C44.5984 117 43.3 118.298 43.3 119.9C43.3 121.502 44.5984 122.8 46.2001 122.8Z" fill="#0165B5"/>
<path opacity="0.4" d="M227.9 139.2C228.894 139.2 229.7 138.394 229.7 137.4C229.7 136.406 228.894 135.6 227.9 135.6C226.906 135.6 226.1 136.406 226.1 137.4C226.1 138.394 226.906 139.2 227.9 139.2Z" fill="#0165B5"/>
<path opacity="0.4" d="M85.8 180C87.1255 180 88.2 178.925 88.2 177.6C88.2 176.274 87.1255 175.2 85.8 175.2C84.4745 175.2 83.4 176.274 83.4 177.6C83.4 178.925 84.4745 180 85.8 180Z" fill="#0165B5"/>
<path d="M281.1 73.5C281.1 59.9 270.1 48.9 256.5 48.9C255.5 48.9 254.6 49 253.6 49.1C248 40.5 238.3 34.9 227.3 34.9C212.7 34.9 200.5 44.7 196.8 58.1C195.6 57.9 194.4 57.8 193.1 57.8C182 57.8 172.9 66.8 172.9 78C172.9 89.2 181.9 98.2 193.1 98.2H258.8V98.1C271.4 96.8 281.1 86.3 281.1 73.5Z" stroke="#0165B5" stroke-width="2" stroke-miterlimit="10"/>
<path d="M63.5 157.9C63.5 150 57.1 143.7 49.3 143.7C48.7 143.7 48.2 143.7 47.6 143.8C44.3 138.9 38.7 135.6 32.4 135.6C24 135.6 16.9 141.3 14.8 149C14.1 148.9 13.4 148.8 12.7 148.8C6.3 148.8 1 154 1 160.5C1 166.9 6.2 172.2 12.7 172.2H50.7V172.1C57.9 171.4 63.5 165.3 63.5 157.9Z" stroke="#0165B5" stroke-width="2" stroke-miterlimit="10"/>
</svg>
