<svg width="207" height="164" viewBox="0 0 207 164" fill="none" xmlns="http://www.w3.org/2000/svg">
<g clip-path="url(#clip0)">
<path d="M157.2 157.6C157.2 160.9 135 163.6 107.6 163.6C80.2 163.6 58 160.9 58 157.6C58 154.3 157.2 154.3 157.2 157.6Z" fill="#99C1E1"/>
<path d="M77.0999 109H64.3999V114H77.0999V109Z" fill="#99C1E1"/>
<path d="M68.3 134.5H58V139H68.3V134.5Z" fill="#99C1E1"/>
<path d="M67.9 152.4H57.6V156.9H67.9V152.4Z" fill="white"/>
<path d="M157.2 152.4H146.9V156.9H157.2V152.4Z" fill="white"/>
<path d="M157.2 134.5H146.9V139H157.2V134.5Z" fill="#99C1E1"/>
<path d="M150.9 109H138.2V114H150.9V109Z" fill="#99C1E1"/>
<path d="M77.0999 109H64.3999V122.7H77.0999V109Z" stroke="#0165B5" stroke-width="2" stroke-miterlimit="10"/>
<path d="M150.9 109H138.2V122.7H150.9V109Z" stroke="#0165B5" stroke-width="2" stroke-miterlimit="10"/>
<path d="M155.1 109H60.0999C55.4999 109 51.7 105.2 51.7 100.6V87.8C51.7 83.2 55.4999 79.4 60.0999 79.4H155.1C159.7 79.4 163.5 83.2 163.5 87.8V100.7C163.5 105.3 159.7 109 155.1 109Z" stroke="#0165B5" stroke-width="2" stroke-miterlimit="10"/>
<path d="M158.9 134.5H56.2999C53.7999 134.5 51.7 132.4 51.7 129.9V127.3C51.7 124.8 53.7999 122.7 56.2999 122.7H158.9C161.4 122.7 163.5 124.8 163.5 127.3V129.9C163.5 132.4 161.4 134.5 158.9 134.5Z" stroke="#0165B5" stroke-width="2" stroke-miterlimit="10"/>
<path d="M64.8 157.6H61.6C59.6 157.6 58.1 156 58.1 154.1V134.5H68.4V154C68.3 156 66.8 157.6 64.8 157.6Z" stroke="#0165B5" stroke-width="2" stroke-miterlimit="10"/>
<path d="M153.6 157.6H150.4C148.4 157.6 146.9 156 146.9 154.1V134.5H157.2V154C157.2 156 155.6 157.6 153.6 157.6Z" stroke="#0165B5" stroke-width="2" stroke-miterlimit="10"/>
<path d="M63.2 87.6H96.5" stroke="#0165B5" stroke-width="2" stroke-miterlimit="10" stroke-linecap="round"/>
<path d="M89.3999 99H108.8" stroke="#0165B5" stroke-width="2" stroke-miterlimit="10" stroke-linecap="round"/>
<path d="M141.4 91.6H131.2" stroke="#0165B5" stroke-width="2" stroke-miterlimit="10" stroke-linecap="round"/>
<path d="M180.8 67.1C194.828 67.1 206.2 55.728 206.2 41.7C206.2 27.672 194.828 16.3 180.8 16.3C166.772 16.3 155.4 27.672 155.4 41.7C155.4 55.728 166.772 67.1 180.8 67.1Z" fill="#0165B5"/>
<path d="M177.6 21.5C191.6 21.5 203 32.9 203 46.9C203 50.7 202.2 54.3 200.7 57.5C204.2 53.2 206.2 47.7 206.2 41.7C206.2 27.7 194.8 16.3 180.8 16.3C170.6 16.3 161.8 22.3 157.7 31.1C162.4 25.2 169.6 21.5 177.6 21.5Z" fill="#3484C4"/>
<path d="M180.8 77.3V47.2" stroke="white" stroke-width="2" stroke-miterlimit="10" stroke-linecap="round"/>
<path d="M180.8 53.3L191 43.1" stroke="white" stroke-width="2" stroke-miterlimit="10" stroke-linecap="round"/>
<path d="M180.8 83.5L172.3 75" stroke="#0165B5" stroke-width="2" stroke-miterlimit="10" stroke-linecap="round"/>
<path d="M180.8 128.6V67.1" stroke="#0165B5" stroke-width="2" stroke-miterlimit="10" stroke-linecap="round"/>
<path d="M43.8 73.5C56.613 73.5 67 63.113 67 50.3C67 37.487 56.613 27.1 43.8 27.1C30.987 27.1 20.6 37.487 20.6 50.3C20.6 63.113 30.987 73.5 43.8 73.5Z" fill="#0165B5"/>
<path d="M40.8999 31.8C53.6999 31.8 64.0999 42.2 64.0999 55C64.0999 58.5 63.2999 61.8 61.9999 64.7C65.1999 60.7 67.0999 55.7 67.0999 50.3C67.0999 37.5 56.6999 27.1 43.8999 27.1C34.5999 27.1 26.4999 32.6 22.7999 40.6C26.9999 35.2 33.5999 31.8 40.8999 31.8Z" fill="#3484C4"/>
<path d="M43.7999 82.8V55.3" stroke="white" stroke-width="2" stroke-miterlimit="10" stroke-linecap="round"/>
<path d="M43.8 65.6L38.4 60.1" stroke="white" stroke-width="2" stroke-miterlimit="10" stroke-linecap="round"/>
<path d="M43.7999 93.9L33.7999 83.8" stroke="#0165B5" stroke-width="2" stroke-miterlimit="10" stroke-linecap="round"/>
<path d="M43.7999 129.6V73.5" stroke="#0165B5" stroke-width="2" stroke-miterlimit="10" stroke-linecap="round"/>
<path d="M149.4 27.9C149.4 22.4 144.9 17.9 139.4 17.9C139 17.9 138.6 17.9 138.2 18C135.9 14.5 132 12.3 127.5 12.3C121.6 12.3 116.6 16.3 115.1 21.7C114.6 21.6 114.1 21.6 113.6 21.6C109.1 21.6 105.4 25.3 105.4 29.8C105.4 34.3 109.1 38 113.6 38H140.3C145.5 37.3 149.4 33.1 149.4 27.9Z" stroke="#0165B5" stroke-width="2" stroke-miterlimit="10"/>
<path d="M101.8 12C101.8 8.1 98.6 5 94.8 5C94.5 5 94.3 5 94 5C92.4 2.6 89.6 1 86.5 1C82.3 1 78.8 3.8 77.8 7.6C77.5 7.5 77.1 7.5 76.8 7.5C73.6 7.5 71 10.1 71 13.3C71 16.5 73.6 19.1 76.8 19.1H95.6C99 18.7 101.8 15.7 101.8 12Z" stroke="#0165B5" stroke-width="2" stroke-miterlimit="10"/>
<path d="M91.2 42.4C91.2 39.5 88.8 37.1 85.9 37.1C85.7 37.1 85.5 37.1 85.3 37.1C84.1 35.3 82 34.1 79.7 34.1C76.6 34.1 74 36.2 73.2 39.1C72.9 39.1 72.7 39 72.4 39C70 39 68.1 40.9 68.1 43.3C68.1 45.7 70 47.6 72.4 47.6H86.4C89.1 47.4 91.2 45.2 91.2 42.4Z" stroke="#0165B5" stroke-width="2" stroke-miterlimit="10"/>
<path d="M4.5 158.8C2.6 158.8 1 157.2 1 155.3V104C1 102.1 2.6 100.5 4.5 100.5" fill="#99C1E1"/>
<path d="M30.1 158.8H5.1C2.8 158.8 1 156.9 1 154.7V104.6C1 102.3 2.9 100.5 5.1 100.5H30C32.3 100.5 34.1 102.4 34.1 104.6V154.7C34.2 156.9 32.4 158.8 30.1 158.8Z" stroke="#0165B5" stroke-width="2" stroke-miterlimit="10"/>
<path d="M25.6 118.9H10.2C8.69998 118.9 7.59998 117.7 7.59998 116.3V108.4C7.59998 106.9 8.79998 105.8 10.2 105.8H25.7C27.2 105.8 28.3 107 28.3 108.4V116.3C28.3 117.7 27.1 118.9 25.6 118.9Z" fill="#0165B5"/>
<path d="M10 124.2H25.8" stroke="#0165B5" stroke-width="2" stroke-miterlimit="10" stroke-linecap="round"/>
<path d="M6 154.1H21.7" stroke="#0165B5" stroke-width="2" stroke-miterlimit="10" stroke-linecap="round"/>
<path d="M30.9 154.1H27.1" stroke="#0165B5" stroke-width="2" stroke-miterlimit="10" stroke-linecap="round"/>
</g>
<defs>
<clipPath id="clip0">
<rect width="206.2" height="163.6" fill="white"/>
</clipPath>
</defs>
</svg>
