<svg width="196" height="150" viewBox="0 0 196 150" fill="none" xmlns="http://www.w3.org/2000/svg">
<path d="M121.148 1.08301C161.927 1.08301 194.918 34.2238 194.918 74.9458C194.918 115.668 161.819 148.809 121.148 148.809C121.148 148.809 175.016 139.495 175.016 73.7545C175.016 8.01441 121.148 1.08301 121.148 1.08301Z" fill="#CCE0F0"/>
<path d="M47.3774 74.9458C47.3774 68.1227 48.2428 61.6245 49.9735 55.3429" stroke="#0165B5" stroke-width="2" stroke-miterlimit="10"/>
<path d="M53.1104 46.4621C64.2516 19.8195 90.5364 1.08301 121.148 1.08301C161.927 1.08301 194.918 34.2238 194.918 74.9458C194.918 115.668 161.819 148.809 121.148 148.809C101.461 148.809 83.6137 141.119 70.309 128.556" stroke="#0165B5" stroke-width="2" stroke-miterlimit="10"/>
<path d="M61.6555 52.6353C68.1456 35.1985 82.2074 21.3357 99.8387 15.0541" stroke="#0165B5" stroke-width="2" stroke-miterlimit="10" stroke-linecap="round"/>
<path d="M98.8096 76.6057L89.4634 83.0684L92.3525 87.2571L101.699 80.7945L98.8096 76.6057Z" fill="#CCE0F0"/>
<path d="M138.425 127.753L123.204 138.277L126.093 142.466L141.314 131.941L138.425 127.753Z" fill="#CCE0F0"/>
<path d="M146.027 109.386C148.947 113.61 147.865 119.567 143.647 122.491L116.389 141.336C112.17 144.26 106.221 143.177 103.3 138.953L146.027 109.386Z" fill="#CCE0F0"/>
<path d="M110.115 57.2925C113.035 61.5163 111.954 67.473 107.735 70.3972L80.477 89.2419C76.2584 92.1661 70.3092 91.0831 67.3887 86.8593L110.115 57.2925Z" fill="#CCE0F0"/>
<path d="M122.627 109.459L99.5752 76.038L88.6268 83.6085L111.679 117.029L122.627 109.459Z" stroke="#0165B5" stroke-width="2" stroke-miterlimit="10"/>
<path d="M107.627 70.5055L80.4769 89.2419C76.2584 92.1661 70.3091 91.0831 67.3886 86.8593L64.4681 82.6354C61.5476 78.4116 62.6292 72.4549 66.8478 69.5307L94.1061 50.686C98.3246 47.7618 104.274 48.8448 107.194 53.0686L110.115 57.2925C113.035 61.6246 111.954 67.473 107.627 70.5055Z" fill="#0165B5"/>
<path d="M88.1568 54.8015L72.9052 65.3069L68.6866 59.2419C66.9559 56.751 67.6049 53.3936 70.0928 51.6607L76.3665 47.3286C78.8544 45.5957 82.2076 46.2455 83.9383 48.7365L88.1568 54.8015Z" stroke="#0165B5" stroke-width="2" stroke-miterlimit="10"/>
<path d="M123.203 138.303L138.455 127.798L142.673 133.863C144.404 136.354 143.755 139.711 141.267 141.444L134.993 145.776C132.506 147.509 129.152 146.859 127.422 144.368L123.203 138.303Z" stroke="#0165B5" stroke-width="2" stroke-miterlimit="10"/>
<path d="M144.404 123.574L117.146 142.419C112.927 145.343 106.978 144.26 104.058 140.036L101.137 135.812C98.2165 131.588 99.2982 125.632 103.517 122.708L130.775 103.863C134.994 100.939 140.943 102.022 143.863 106.246L146.784 110.469C149.704 114.801 148.623 120.65 144.404 123.574Z" fill="#0165B5"/>
<path d="M127.746 110.253L130.775 108.087C134.561 105.487 139.861 106.462 142.457 110.253" stroke="white" stroke-width="2" stroke-miterlimit="10" stroke-linecap="round"/>
<path d="M91.0774 57.1841L94.1061 55.0181C97.892 52.4188 103.192 53.3935 105.788 57.1841" stroke="white" stroke-width="2" stroke-miterlimit="10" stroke-linecap="round"/>
<path d="M38.0752 72.1299C36.7772 72.1299 35.4792 72.2382 34.1812 72.3465C52.786 74.296 67.3887 90.1082 67.3887 109.278C67.3887 128.448 52.8942 144.26 34.1812 146.209C35.4792 146.318 36.7772 146.426 38.0752 146.426C58.5189 146.426 75.0686 129.856 75.0686 109.386C75.1768 88.8086 58.6271 72.1299 38.0752 72.1299Z" fill="#CCE0F0"/>
<path d="M12.4395 70.6136H21.201V76.1371L12.4395 81.5523V70.6136Z" fill="#CCE0F0"/>
<path d="M63.3863 70.6136H54.7329V76.1371L63.3863 81.5523V70.6136Z" fill="#CCE0F0"/>
<path d="M38.0752 146.318C58.506 146.318 75.0685 129.734 75.0685 109.278C75.0685 88.8215 58.506 72.2383 38.0752 72.2383C17.6443 72.2383 1.08179 88.8215 1.08179 109.278C1.08179 129.734 17.6443 146.318 38.0752 146.318Z" stroke="#0165B5" stroke-width="2" stroke-miterlimit="10"/>
<path d="M27.7993 79.8194C31.0443 78.6281 34.5057 78.0865 38.1834 78.0865" stroke="#0165B5" stroke-width="2" stroke-miterlimit="10" stroke-linecap="round"/>
<path d="M6.92285 109.278C6.92285 101.697 9.62705 94.7652 14.0619 89.4584C15.3599 87.8338 16.8743 86.3176 18.4968 85.0179" stroke="#0165B5" stroke-width="2" stroke-miterlimit="10" stroke-linecap="round"/>
<path d="M12.4395 82.4187V60.1083C12.4395 52.3104 18.8214 45.9205 26.6094 45.9205H49.541C57.3291 45.9205 63.711 52.3104 63.711 60.1083V82.527" stroke="#0165B5" stroke-width="2" stroke-miterlimit="10"/>
<path d="M21.2009 76.1372V62.3827C21.2009 57.8339 24.8786 54.1516 29.4217 54.1516H46.404C50.9471 54.1516 54.6248 57.8339 54.6248 62.3827V76.0289" stroke="#0165B5" stroke-width="2" stroke-miterlimit="10"/>
<path d="M38.0752 128.664C48.7685 128.664 57.4372 119.985 57.4372 109.278C57.4372 98.5711 48.7685 89.8916 38.0752 89.8916C27.3818 89.8916 18.7131 98.5711 18.7131 109.278C18.7131 119.985 27.3818 128.664 38.0752 128.664Z" fill="#0165B5"/>
</svg>
