<svg width="174" height="156" viewBox="0 0 174 156" fill="none" xmlns="http://www.w3.org/2000/svg">
<path d="M153.16 142.91C153.16 147.85 123.53 155.85 86.9903 155.85C50.4503 155.85 20.8203 147.85 20.8203 142.91" fill="#99C1E1"/>
<path d="M20.8103 88.83C26.3276 88.83 30.8003 84.3573 30.8003 78.84C30.8003 73.3226 26.3276 68.85 20.8103 68.85C15.293 68.85 10.8203 73.3226 10.8203 78.84C10.8203 84.3573 15.293 88.83 20.8103 88.83Z" fill="#0165B5"/>
<path d="M39.8003 87.2099C43.4012 87.2099 46.3203 84.2908 46.3203 80.6899C46.3203 77.089 43.4012 74.1699 39.8003 74.1699C36.1994 74.1699 33.2803 77.089 33.2803 80.6899C33.2803 84.2908 36.1994 87.2099 39.8003 87.2099Z" fill="#0165B5"/>
<path d="M50.2303 86.92C54.9081 86.92 58.7003 83.1278 58.7003 78.45C58.7003 73.7721 54.9081 69.98 50.2303 69.98C45.5524 69.98 41.7603 73.7721 41.7603 78.45C41.7603 83.1278 45.5524 86.92 50.2303 86.92Z" fill="#0165B5"/>
<path d="M11.0002 85.4499C13.6291 85.4499 15.7602 83.3188 15.7602 80.6899C15.7602 78.0611 13.6291 75.9299 11.0002 75.9299C8.37136 75.9299 6.24023 78.0611 6.24023 80.6899C6.24023 83.3188 8.37136 85.4499 11.0002 85.4499Z" fill="#0165B5"/>
<path d="M29.4401 78.69C32.1132 78.69 34.2801 76.5231 34.2801 73.85C34.2801 71.177 32.1132 69.01 29.4401 69.01C26.767 69.01 24.6001 71.177 24.6001 73.85C24.6001 76.5231 26.767 78.69 29.4401 78.69Z" fill="#0165B5"/>
<path d="M32.0802 83.43C34.6152 83.43 36.6702 81.375 36.6702 78.84C36.6702 76.305 34.6152 74.25 32.0802 74.25C29.5452 74.25 27.4902 76.305 27.4902 78.84C27.4902 81.375 29.5452 83.43 32.0802 83.43Z" fill="#0165B5"/>
<path d="M125.23 18.94C125.23 9.33999 133.31 1.48999 143.18 1.48999C153.05 1.48999 161.13 9.33999 161.13 18.94V81.57" stroke="#0165B5" stroke-width="2" stroke-miterlimit="10" stroke-linecap="round"/>
<path d="M8.38023 101.71L6.24023 94.3099H167.24L165.07 101.87L8.38023 101.71Z" fill="#99C1E1"/>
<path d="M169.75 94.31H3.73029C2.39029 94.31 1.30029 93.22 1.30029 91.88V84.16C1.30029 82.82 2.39029 81.73 3.73029 81.73H169.76C171.1 81.73 172.19 82.82 172.19 84.16V91.88C172.18 93.22 171.09 94.31 169.75 94.31Z" fill="white" stroke="#0165B5" stroke-width="2" stroke-miterlimit="10"/>
<path d="M149.08 142.98H24.4002C19.6502 142.98 15.5602 139.64 14.6002 134.99L6.24023 94.3099H167.24L158.88 135C157.92 139.65 153.83 142.98 149.08 142.98Z" stroke="#0165B5" stroke-width="2" stroke-miterlimit="10"/>
<path opacity="0.4" d="M113.73 77.5299C114.962 77.5299 115.96 76.5315 115.96 75.2999C115.96 74.0683 114.962 73.0699 113.73 73.0699C112.499 73.0699 111.5 74.0683 111.5 75.2999C111.5 76.5315 112.499 77.5299 113.73 77.5299Z" fill="#0165B5"/>
<path opacity="0.4" d="M123.73 54.48C125.415 54.48 126.78 53.1145 126.78 51.43C126.78 49.7455 125.415 48.38 123.73 48.38C122.046 48.38 120.68 49.7455 120.68 51.43C120.68 53.1145 122.046 54.48 123.73 54.48Z" fill="#0165B5"/>
<path d="M111.85 54.6C114.54 54.6 116.72 52.4196 116.72 49.73C116.72 47.0404 114.54 44.86 111.85 44.86C109.161 44.86 106.98 47.0404 106.98 49.73C106.98 52.4196 109.161 54.6 111.85 54.6Z" fill="#0165B5"/>
<path d="M119.77 70.29C121.206 70.29 122.37 69.1259 122.37 67.69C122.37 66.254 121.206 65.09 119.77 65.09C118.334 65.09 117.17 66.254 117.17 67.69C117.17 69.1259 118.334 70.29 119.77 70.29Z" fill="#0165B5"/>
<path opacity="0.4" d="M100.2 47.4299C102.172 47.4299 103.77 45.8316 103.77 43.8599C103.77 41.8883 102.172 40.2899 100.2 40.2899C98.2287 40.2899 96.6304 41.8883 96.6304 43.8599C96.6304 45.8316 98.2287 47.4299 100.2 47.4299Z" fill="#0165B5"/>
<path d="M106.98 32.3C108.212 32.3 109.21 31.3016 109.21 30.07C109.21 28.8384 108.212 27.84 106.98 27.84C105.749 27.84 104.75 28.8384 104.75 30.07C104.75 31.3016 105.749 32.3 106.98 32.3Z" fill="#0165B5"/>
<path d="M107.98 68.06C109.621 68.06 110.95 66.7303 110.95 65.09C110.95 63.4497 109.621 62.12 107.98 62.12C106.34 62.12 105.01 63.4497 105.01 65.09C105.01 66.7303 106.34 68.06 107.98 68.06Z" fill="#0165B5"/>
<path d="M164.08 109.68H122.53" stroke="#0165B5" stroke-width="2" stroke-miterlimit="10" stroke-linecap="round"/>
<path d="M115.89 109.68H108.36" stroke="#0165B5" stroke-width="2" stroke-miterlimit="10" stroke-linecap="round"/>
<path d="M133.97 26.4399H115.81C114.47 26.4399 113.37 25.3399 113.37 23.9999V21.8799C113.37 20.5399 114.47 19.4399 115.81 19.4399H133.97C135.31 19.4399 136.41 20.5399 136.41 21.8799V23.9999C136.41 25.3499 135.31 26.4399 133.97 26.4399Z" stroke="#0165B5" stroke-width="2" stroke-miterlimit="10" stroke-linecap="round"/>
</svg>
