<svg width="270" height="159" viewBox="0 0 270 159" fill="none" xmlns="http://www.w3.org/2000/svg">
<path d="M111.818 78.0823C109.418 63.9054 108 57.4712 107.564 49.5103C107.345 44.4939 106.691 33.1523 102.545 27.6996C100.364 24.7552 96.8726 23.4465 93.8181 24.1009C71.8908 28.7902 58.909 10.142 57.0544 40.677C56.509 57.2531 48.6544 74.5926 53.2363 81.0268C54.8726 83.426 63.8181 85.7161 74.1817 86.8066C76.3635 83.0988 77.6726 79.0638 77.6726 79.0638H85.0908C85.0908 79.0638 86.2908 83.6441 88.5817 87.57C101.673 87.3519 113.018 84.8437 111.818 78.0823Z" fill="#0165B5"/>
<path d="M87.0546 84.4075C85.7455 81.5721 85.0909 79.0638 85.0909 79.0638H77.6727C77.6727 79.0638 76.8 81.6811 75.3818 84.6256C77.1273 85.3889 79.0909 85.7161 81.0546 85.7161C83.0182 85.7161 85.0909 85.2799 87.0546 84.4075Z" fill="#CCE0F0"/>
<path d="M66.4363 93.2408C72.9817 93.2408 77.6726 79.0638 77.6726 79.0638H85.0908C85.0908 79.0638 88.909 93.2408 95.4545 93.2408" stroke="#0165B5" stroke-width="2" stroke-miterlimit="10"/>
<path d="M104.291 56.5988C103.309 56.0535 102.109 56.3807 100.909 57.2531C101.127 55.6173 101.236 53.8724 101.236 52.2366C101.236 36.751 92.1819 24.1008 80.9455 24.1008C69.7092 24.1008 60.6546 36.642 60.6546 52.2366C60.6546 53.9815 60.7637 55.6173 60.9819 57.2531C59.7819 56.3807 58.5819 56.1626 57.6001 56.5988C55.7455 57.5802 55.6364 60.9609 57.3819 64.1235C59.0182 67.3951 61.8546 69.249 63.7092 68.2675C63.9273 68.1584 64.0364 68.0494 64.1455 67.9403C67.7455 75.356 73.9637 80.2634 80.9455 80.2634C87.9273 80.2634 94.0364 75.356 97.7455 67.9403C97.8546 68.0494 98.0728 68.1584 98.1819 68.2675C100.036 69.249 102.873 67.3951 104.509 64.1235C106.146 60.8518 106.036 57.5802 104.291 56.5988Z" fill="white" stroke="#0165B5" stroke-width="2" stroke-miterlimit="10"/>
<path d="M61.3739 64.596C61.6869 64.4153 61.4279 63.3809 60.7952 62.2856C60.1626 61.1903 59.396 60.4488 59.083 60.6295C58.7699 60.8102 59.029 61.8446 59.6616 62.9399C60.2942 64.0352 61.0608 64.7767 61.3739 64.596Z" fill="#0165B5"/>
<path d="M101.236 62.2695C100.582 63.3601 100.364 64.4506 100.691 64.5597C101.018 64.6687 101.782 64.0144 102.436 62.9239C103.091 61.8333 103.309 60.7428 102.982 60.6337C102.655 60.4156 101.891 61.179 101.236 62.2695Z" fill="#0165B5"/>
<path d="M71.1272 55.9445C72.1515 55.9445 72.9818 55.1145 72.9818 54.0906C72.9818 53.0667 72.1515 52.2367 71.1272 52.2367C70.103 52.2367 69.2727 53.0667 69.2727 54.0906C69.2727 55.1145 70.103 55.9445 71.1272 55.9445Z" fill="#0165B5"/>
<path d="M90.7635 55.9445C91.7877 55.9445 92.618 55.1145 92.618 54.0906C92.618 53.0667 91.7877 52.2367 90.7635 52.2367C89.7392 52.2367 88.9089 53.0667 88.9089 54.0906C88.9089 55.1145 89.7392 55.9445 90.7635 55.9445Z" fill="#0165B5"/>
<path d="M80.9453 51.6914C80.9453 54.963 81.2726 55.9445 80.509 56.926C79.7453 58.0165 78.3271 58.1256 78.3271 58.7799C78.3271 59.5433 80.3999 60.1976 81.709 60.1976" stroke="#0165B5" stroke-width="2" stroke-miterlimit="10" stroke-linecap="round"/>
<path d="M65.7817 45.0391C68.0726 43.0761 70.1454 42.3128 72.8727 43.0761" stroke="#0165B5" stroke-width="2" stroke-miterlimit="10" stroke-linecap="round"/>
<path d="M96.2181 45.0391C93.9272 43.0761 92.8363 42.7489 89.1272 43.0761" stroke="#0165B5" stroke-width="2" stroke-miterlimit="10" stroke-linecap="round"/>
<path d="M78.1089 65.323H84.9816" stroke="#0165B5" stroke-width="2" stroke-miterlimit="10" stroke-linecap="round"/>
<path d="M77.3453 22.1379C74.2908 27.4815 79.418 35.7696 85.418 39.2593C91.1998 42.64 100.145 43.0762 103.309 38.7141C106.909 33.5885 102.109 22.356 93.818 18.9754C88.2544 16.6852 80.0726 17.3396 77.3453 22.1379Z" fill="#0165B5"/>
<path d="M80.9454 20.8293C77.6727 16.2491 60.7636 20.3931 58.6909 29.8807C58.2545 31.9528 58.8 32.9342 60.6545 35.4425C62.1818 37.4054 58.2545 40.4589 60.4363 41.0042C64.5818 41.8766 74.6182 39.6956 78.9818 35.5515C84 30.5351 82.8 23.3375 80.9454 20.8293Z" fill="#0165B5"/>
<path d="M68.1819 39.9136C72.1092 40.6769 79.4182 40.6769 80.0728 34.5699" stroke="#0165B5" stroke-width="2" stroke-miterlimit="10" stroke-linecap="round"/>
<path d="M114.545 111.016C112.364 101.093 102.545 93.0226 89.8909 90.5144C89.8909 95.3128 85.9636 97.821 81.0546 97.821C76.1455 97.821 72.2182 95.4218 72.2182 90.6235C72.2182 90.6235 72.2182 90.6235 72.3273 90.5144C59.5636 93.0226 49.6364 100.984 47.3455 111.016" fill="#0165B5"/>
<path d="M63.0544 24.8642C63.3817 24.3189 66.3272 18.8663 71.3454 17.4486C76.4726 15.9218 79.0908 19.9568 79.309 20.284" stroke="#0165B5" stroke-width="2" stroke-miterlimit="10" stroke-linecap="round"/>
<path d="M114.545 110.907H11.2363C5.67264 110.907 1.09082 106.327 1.09082 100.765V11.2326C1.09082 5.67082 5.67264 1.09058 11.2363 1.09058H145.745C151.309 1.09058 155.891 5.67082 155.891 11.2326V48.0926" stroke="#0165B5" stroke-width="2" stroke-miterlimit="10"/>
<path d="M1.5271 10.2511H155.891" stroke="#0165B5" stroke-width="2" stroke-miterlimit="10"/>
<path d="M1.5271 10.2511H155.891" stroke="#0165B5" stroke-width="2" stroke-miterlimit="10"/>
<path opacity="0.4" d="M11.9999 8.2881C13.3253 8.2881 14.3999 7.21395 14.3999 5.88892C14.3999 4.56389 13.3253 3.48975 11.9999 3.48975C10.6744 3.48975 9.59985 4.56389 9.59985 5.88892C9.59985 7.21395 10.6744 8.2881 11.9999 8.2881Z" fill="#0165B5"/>
<path opacity="0.4" d="M18.7635 8.2881C20.089 8.2881 21.1635 7.21395 21.1635 5.88892C21.1635 4.56389 20.089 3.48975 18.7635 3.48975C17.438 3.48975 16.3635 4.56389 16.3635 5.88892C16.3635 7.21395 17.438 8.2881 18.7635 8.2881Z" fill="#0165B5"/>
<path opacity="0.4" d="M25.4181 8.2881C26.7435 8.2881 27.8181 7.21395 27.8181 5.88892C27.8181 4.56389 26.7435 3.48975 25.4181 3.48975C24.0926 3.48975 23.0181 4.56389 23.0181 5.88892C23.0181 7.21395 24.0926 8.2881 25.4181 8.2881Z" fill="#0165B5"/>
<path d="M11.1272 62.5967L45.709 28.0267" stroke="#0165B5" stroke-width="2" stroke-miterlimit="10" stroke-linecap="round"/>
<path d="M24.5454 62.5967L41.5636 45.5844" stroke="#0165B5" stroke-width="2" stroke-miterlimit="10" stroke-linecap="round"/>
<path d="M162 24.537C163.265 24.537 164.291 23.5117 164.291 22.2469C164.291 20.9821 163.265 19.9568 162 19.9568C160.735 19.9568 159.709 20.9821 159.709 22.2469C159.709 23.5117 160.735 24.537 162 24.537Z" fill="#0165B5"/>
<path opacity="0.4" d="M168.545 24.537C169.811 24.537 170.836 23.5117 170.836 22.2469C170.836 20.9821 169.811 19.9568 168.545 19.9568C167.28 19.9568 166.254 20.9821 166.254 22.2469C166.254 23.5117 167.28 24.537 168.545 24.537Z" fill="#0165B5"/>
<path d="M175.091 24.537C176.356 24.537 177.382 23.5117 177.382 22.2469C177.382 20.9821 176.356 19.9568 175.091 19.9568C173.825 19.9568 172.8 20.9821 172.8 22.2469C172.8 23.5117 173.825 24.537 175.091 24.537Z" fill="#0165B5"/>
<path opacity="0.4" d="M181.636 24.537C182.902 24.537 183.927 23.5117 183.927 22.2469C183.927 20.9821 182.902 19.9568 181.636 19.9568C180.371 19.9568 179.345 20.9821 179.345 22.2469C179.345 23.5117 180.371 24.537 181.636 24.537Z" fill="#0165B5"/>
<path d="M188.182 24.537C189.447 24.537 190.473 23.5117 190.473 22.2469C190.473 20.9821 189.447 19.9568 188.182 19.9568C186.917 19.9568 185.891 20.9821 185.891 22.2469C185.891 23.5117 186.917 24.537 188.182 24.537Z" fill="#0165B5"/>
<path opacity="0.4" d="M194.727 24.537C195.992 24.537 197.018 23.5117 197.018 22.2469C197.018 20.9821 195.992 19.9568 194.727 19.9568C193.462 19.9568 192.436 20.9821 192.436 22.2469C192.436 23.5117 193.462 24.537 194.727 24.537Z" fill="#0165B5"/>
<path d="M201.273 24.537C202.538 24.537 203.564 23.5117 203.564 22.2469C203.564 20.9821 202.538 19.9568 201.273 19.9568C200.007 19.9568 198.982 20.9821 198.982 22.2469C198.982 23.5117 200.007 24.537 201.273 24.537Z" fill="#0165B5"/>
<path opacity="0.4" d="M207.818 24.537C209.083 24.537 210.109 23.5117 210.109 22.2469C210.109 20.9821 209.083 19.9568 207.818 19.9568C206.553 19.9568 205.527 20.9821 205.527 22.2469C205.527 23.5117 206.553 24.537 207.818 24.537Z" fill="#0165B5"/>
<path d="M207.818 31.0802C209.083 31.0802 210.109 30.0549 210.109 28.7901C210.109 27.5253 209.083 26.5 207.818 26.5C206.553 26.5 205.527 27.5253 205.527 28.7901C205.527 30.0549 206.553 31.0802 207.818 31.0802Z" fill="#0165B5"/>
<path opacity="0.4" d="M207.818 37.6235C209.083 37.6235 210.109 36.5981 210.109 35.3333C210.109 34.0685 209.083 33.0432 207.818 33.0432C206.553 33.0432 205.527 34.0685 205.527 35.3333C205.527 36.5981 206.553 37.6235 207.818 37.6235Z" fill="#0165B5"/>
<path d="M207.818 44.1667C209.083 44.1667 210.109 43.1414 210.109 41.8766C210.109 40.6118 209.083 39.5864 207.818 39.5864C206.553 39.5864 205.527 40.6118 205.527 41.8766C205.527 43.1414 206.553 44.1667 207.818 44.1667Z" fill="#0165B5"/>
<path d="M107.891 139.043C109.156 139.043 110.182 138.018 110.182 136.753C110.182 135.488 109.156 134.463 107.891 134.463C106.626 134.463 105.6 135.488 105.6 136.753C105.6 138.018 106.626 139.043 107.891 139.043Z" fill="#0165B5"/>
<path opacity="0.4" d="M101.345 139.043C102.611 139.043 103.636 138.018 103.636 136.753C103.636 135.488 102.611 134.463 101.345 134.463C100.08 134.463 99.0544 135.488 99.0544 136.753C99.0544 138.018 100.08 139.043 101.345 139.043Z" fill="#0165B5"/>
<path d="M94.7999 139.043C96.0652 139.043 97.0909 138.018 97.0909 136.753C97.0909 135.488 96.0652 134.463 94.7999 134.463C93.5347 134.463 92.509 135.488 92.509 136.753C92.509 138.018 93.5347 139.043 94.7999 139.043Z" fill="#0165B5"/>
<path opacity="0.4" d="M88.2545 139.043C89.5198 139.043 90.5454 138.018 90.5454 136.753C90.5454 135.488 89.5198 134.463 88.2545 134.463C86.9893 134.463 85.9636 135.488 85.9636 136.753C85.9636 138.018 86.9893 139.043 88.2545 139.043Z" fill="#0165B5"/>
<path d="M81.7091 139.043C82.9744 139.043 84 138.018 84 136.753C84 135.488 82.9744 134.463 81.7091 134.463C80.4439 134.463 79.4182 135.488 79.4182 136.753C79.4182 138.018 80.4439 139.043 81.7091 139.043Z" fill="#0165B5"/>
<path opacity="0.4" d="M75.1635 139.043C76.4287 139.043 77.4544 138.018 77.4544 136.753C77.4544 135.488 76.4287 134.463 75.1635 134.463C73.8982 134.463 72.8726 135.488 72.8726 136.753C72.8726 138.018 73.8982 139.043 75.1635 139.043Z" fill="#0165B5"/>
<path d="M68.6181 139.043C69.8833 139.043 70.909 138.018 70.909 136.753C70.909 135.488 69.8833 134.463 68.6181 134.463C67.3528 134.463 66.3271 135.488 66.3271 136.753C66.3271 138.018 67.3528 139.043 68.6181 139.043Z" fill="#0165B5"/>
<path opacity="0.4" d="M62.0726 139.043C63.3379 139.043 64.3636 138.018 64.3636 136.753C64.3636 135.488 63.3379 134.463 62.0726 134.463C60.8074 134.463 59.7817 135.488 59.7817 136.753C59.7817 138.018 60.8074 139.043 62.0726 139.043Z" fill="#0165B5"/>
<path d="M62.0726 132.5C63.3379 132.5 64.3636 131.475 64.3636 130.21C64.3636 128.945 63.3379 127.92 62.0726 127.92C60.8074 127.92 59.7817 128.945 59.7817 130.21C59.7817 131.475 60.8074 132.5 62.0726 132.5Z" fill="#0165B5"/>
<path opacity="0.4" d="M62.0726 125.957C63.3379 125.957 64.3636 124.932 64.3636 123.667C64.3636 122.402 63.3379 121.377 62.0726 121.377C60.8074 121.377 59.7817 122.402 59.7817 123.667C59.7817 124.932 60.8074 125.957 62.0726 125.957Z" fill="#0165B5"/>
<path d="M62.0726 119.414C63.3379 119.414 64.3636 118.388 64.3636 117.123C64.3636 115.859 63.3379 114.833 62.0726 114.833C60.8074 114.833 59.7817 115.859 59.7817 117.123C59.7817 118.388 60.8074 119.414 62.0726 119.414Z" fill="#0165B5"/>
<path d="M258.873 157.909H124.255C118.691 157.909 114.109 153.329 114.109 147.767V58.1255C114.109 52.5638 118.691 47.9835 124.255 47.9835H258.764C264.327 47.9835 268.909 52.5638 268.909 58.1255V147.658C268.909 153.329 264.436 157.909 258.873 157.909Z" stroke="#0165B5" stroke-width="2" stroke-miterlimit="10"/>
<path d="M114.545 57.2531H268.909" stroke="#0165B5" stroke-width="2" stroke-miterlimit="10"/>
<path d="M114.545 57.2531H268.909" stroke="#0165B5" stroke-width="2" stroke-miterlimit="10"/>
<path opacity="0.4" d="M125.127 55.181C126.453 55.181 127.527 54.1069 127.527 52.7819C127.527 51.4568 126.453 50.3827 125.127 50.3827C123.802 50.3827 122.727 51.4568 122.727 52.7819C122.727 54.1069 123.802 55.181 125.127 55.181Z" fill="#0165B5"/>
<path opacity="0.4" d="M131.782 55.181C133.107 55.181 134.182 54.1069 134.182 52.7819C134.182 51.4568 133.107 50.3827 131.782 50.3827C130.456 50.3827 129.382 51.4568 129.382 52.7819C129.382 54.1069 130.456 55.181 131.782 55.181Z" fill="#0165B5"/>
<path opacity="0.4" d="M138.546 55.181C139.871 55.181 140.945 54.1069 140.945 52.7819C140.945 51.4568 139.871 50.3827 138.546 50.3827C137.22 50.3827 136.146 51.4568 136.146 52.7819C136.146 54.1069 137.22 55.181 138.546 55.181Z" fill="#0165B5"/>
<path d="M233.564 118.432L243.382 108.617" stroke="#0165B5" stroke-width="2" stroke-miterlimit="10" stroke-linecap="round"/>
<path d="M234.764 129.447L256.8 107.418" stroke="#0165B5" stroke-width="2" stroke-miterlimit="10" stroke-linecap="round"/>
<path d="M200.182 128.683C198.764 125.412 198.109 122.467 198.109 122.467H184.145C184.145 122.467 185.018 125.739 183.273 129.119C185.236 129.883 189.273 130.646 191.455 130.646C193.855 130.537 198.109 129.665 200.182 128.683Z" fill="#CCE0F0"/>
<path d="M180.436 137.516L185.345 118.759H198L204.218 140.461" stroke="#0165B5" stroke-width="2" stroke-miterlimit="10"/>
<path d="M218.073 101.529C216.982 100.984 215.673 101.311 214.255 102.183C214.473 100.438 214.582 98.8025 214.582 96.9486C214.582 81.0268 204.327 68.0494 191.673 68.0494C179.018 68.0494 168.764 81.0268 168.764 96.9486C168.764 98.6935 168.873 100.438 169.091 102.183C167.782 101.311 166.364 101.093 165.273 101.529C163.2 102.51 163.091 106 164.945 109.272C166.8 112.543 170.073 114.506 172.036 113.525C172.255 113.416 172.364 113.307 172.582 113.198C176.727 120.831 183.709 125.848 191.564 125.848C199.418 125.848 206.4 120.831 210.545 113.198C210.655 113.307 210.873 113.416 211.091 113.525C213.164 114.506 216.327 112.543 218.182 109.272C220.255 106 220.145 102.51 218.073 101.529Z" fill="white" stroke="#0165B5" stroke-width="2" stroke-miterlimit="10"/>
<path d="M169.633 109.665C169.987 109.436 169.691 108.348 168.971 107.235C168.252 106.123 167.381 105.406 167.027 105.635C166.673 105.864 166.969 106.952 167.689 108.065C168.409 109.177 169.279 109.894 169.633 109.665Z" fill="#0165B5"/>
<path d="M214.582 107.309C213.818 108.399 213.6 109.49 213.927 109.708C214.255 109.926 215.127 109.163 215.891 108.072C216.655 106.982 216.873 105.891 216.545 105.673C216.218 105.455 215.345 106.109 214.582 107.309Z" fill="#0165B5"/>
<path d="M180.655 101.093C181.799 101.093 182.727 100.165 182.727 99.0206C182.727 97.8763 181.799 96.9486 180.655 96.9486C179.51 96.9486 178.582 97.8763 178.582 99.0206C178.582 100.165 179.51 101.093 180.655 101.093Z" fill="#0165B5"/>
<path d="M202.8 101.093C203.945 101.093 204.873 100.165 204.873 99.0206C204.873 97.8763 203.945 96.9486 202.8 96.9486C201.655 96.9486 200.727 97.8763 200.727 99.0206C200.727 100.165 201.655 101.093 202.8 101.093Z" fill="#0165B5"/>
<path d="M191.673 96.4033C191.673 100.111 192.982 100.22 193.746 101.202C194.618 102.401 194.618 103.601 194.618 104.364C194.618 105.237 192.327 105.891 190.8 105.891" stroke="#0165B5" stroke-width="2" stroke-miterlimit="10" stroke-linecap="round"/>
<path d="M174.545 88.8786C177.164 86.5885 179.455 85.8251 182.509 86.5885" stroke="#0165B5" stroke-width="2" stroke-miterlimit="10" stroke-linecap="round"/>
<path d="M208.909 88.8786C206.291 86.5885 205.091 86.3704 200.945 86.5885" stroke="#0165B5" stroke-width="2" stroke-miterlimit="10" stroke-linecap="round"/>
<path d="M188.618 111.78H196.255" stroke="#0165B5" stroke-width="2" stroke-miterlimit="10" stroke-linecap="round"/>
<path d="M229.636 158.019C229.636 141.77 216.109 137.735 201.818 134.79C201.818 140.243 197.345 142.969 191.891 142.969C186.436 142.969 181.964 140.243 181.964 134.79C181.964 134.79 181.964 134.79 182.073 134.681C167.673 137.517 153.818 141.661 153.818 157.8" fill="#0165B5"/>
<path d="M168.327 95.8581C169.964 98.0391 168.327 78.4095 189.709 78.4095C204.436 78.4095 209.673 85.3889 212.4 82.8807C220.145 75.7922 212.836 63.9054 194.509 63.9054C164.291 63.9054 165.818 92.3684 168.327 95.8581Z" fill="#0165B5"/>
</svg>
