<svg width="223" height="172" viewBox="0 0 223 172" fill="none" xmlns="http://www.w3.org/2000/svg">
<path d="M118.044 106.232H33.6169C27.843 106.232 23.2239 101.607 23.2239 95.8268H118.044V106.232Z" fill="#CCE0F0"/>
<path d="M134.082 165.192H206.063C211.837 165.192 216.456 160.568 216.456 154.787H134.082V165.192Z" fill="#CCE0F0"/>
<path d="M83.2722 142.07C83.2722 138.217 86.3516 135.134 90.3292 135.134H214.788C218.638 135.134 221.845 138.217 221.845 142.07" fill="#CCE0F0"/>
<path d="M215.43 154.787H89.5593C86.095 154.787 83.2722 151.961 83.2722 148.493V141.556C83.2722 138.088 86.095 135.262 89.5593 135.262H215.43C218.894 135.262 221.717 138.088 221.717 141.556V148.493C221.717 151.961 218.894 154.787 215.43 154.787Z" stroke="#0165B5" stroke-width="2" stroke-miterlimit="10"/>
<path d="M17.1934 83.1098C17.1934 79.2561 20.2728 76.1732 24.2503 76.1732H148.709C152.559 76.1732 155.766 79.2561 155.766 83.1098" fill="#CCE0F0"/>
<path d="M149.351 95.8267H23.4805C20.0161 95.8267 17.1934 93.0007 17.1934 89.5325V82.5959C17.1934 79.1277 20.0161 76.3017 23.4805 76.3017H149.351C152.815 76.3017 155.638 79.1277 155.638 82.5959V89.5325C155.638 93.0007 152.815 95.8267 149.351 95.8267Z" stroke="#0165B5" stroke-width="2" stroke-miterlimit="10"/>
<path d="M133.954 96.469H118.044V102.892H133.954V96.469Z" fill="#CCE0F0"/>
<path d="M133.954 95.8267H118.044V135.262H133.954V95.8267Z" stroke="#0165B5" stroke-width="2" stroke-miterlimit="10"/>
<path d="M133.954 155.429H118.044V161.852H133.954V155.429Z" fill="#CCE0F0"/>
<path d="M133.954 154.787H118.044V170.715H133.954V154.787Z" stroke="#0165B5" stroke-width="2" stroke-miterlimit="10"/>
<path d="M17.1933 162.238C26.6889 162.238 34.3867 154.531 34.3867 145.025C34.3867 135.518 26.6889 127.812 17.1933 127.812C7.69771 127.812 0 135.518 0 145.025C0 154.531 7.69771 162.238 17.1933 162.238Z" fill="#0165B5"/>
<path d="M17.1934 82.2106V130.124" stroke="#0165B5" stroke-width="2" stroke-miterlimit="10"/>
<path d="M26.5599 151.961C20.4011 154.916 17.5783 160.824 19.118 165.32C20.2728 168.66 23.6088 170.202 24.6352 170.715" stroke="#0165B5" stroke-width="2" stroke-miterlimit="10" stroke-linecap="round"/>
<path d="M5.13232 163.137C11.5477 165.449 17.7065 163.137 19.7595 159.026C21.2992 155.815 20.0161 152.347 19.6312 151.319" stroke="#0165B5" stroke-width="2" stroke-miterlimit="10" stroke-linecap="round"/>
<path d="M65.0522 75.6595C65.0522 57.8043 81.0908 35.4533 106.624 35.4533C132.158 35.4533 148.196 57.8043 148.196 75.6595H65.0522Z" fill="#0165B5"/>
<path d="M103.802 75.531C103.802 63.4563 113.553 53.8223 125.486 53.8223" stroke="white" stroke-width="2" stroke-miterlimit="10" stroke-linecap="round"/>
<path d="M86.8647 61.1441C86.3514 54.9783 83.657 49.5833 79.6794 45.4727C70.3129 53.5654 65.0522 65.3831 65.0522 75.531H83.7853C86.2231 71.292 87.3779 66.2823 86.8647 61.1441Z" fill="#3484C4"/>
<path d="M47.7307 75.6595H23.0955V69.4937C23.0955 65.3831 26.4315 62.0433 30.5373 62.0433H47.7307V75.6595Z" fill="#0165B5"/>
<path d="M27.4579 75.6594H25.9182V71.8058C25.9182 71.4205 26.3031 71.0351 26.6881 71.0351C27.073 71.0351 27.4579 71.4205 27.4579 71.8058V75.6594Z" fill="white"/>
<path d="M31.692 75.6594H30.1523V71.8058C30.1523 71.4205 30.5373 71.0351 30.9222 71.0351C31.3071 71.0351 31.692 71.4205 31.692 71.8058V75.6594Z" fill="white"/>
<path d="M36.0547 75.6594H34.6433V71.8058C34.6433 71.4205 35.0282 71.0351 35.4132 71.0351C35.7981 71.0351 36.183 71.4205 36.183 71.8058V75.6594H36.0547Z" fill="white"/>
<path d="M58.1237 41.1053L72.4943 30.829C73.9057 29.8014 75.8303 30.829 75.9586 32.4989L76.4718 50.2256C76.4718 51.8955 74.8038 52.9231 73.3924 52.2808L58.5087 44.8305C56.969 44.0598 56.7124 42.0045 58.1237 41.1053Z" fill="#0165B5"/>
<path d="M54.018 42.133L38.6209 33.3981C37.0812 32.4989 35.2849 33.655 35.4132 35.4533L36.6963 53.0516C36.8246 54.7215 38.6209 55.6206 40.0323 54.7215L54.1463 45.8581C55.4293 45.0874 55.4293 43.0321 54.018 42.133Z" fill="#0165B5"/>
<path d="M57.2256 88.7618C71.2565 88.7618 82.6307 77.3746 82.6307 63.3279C82.6307 49.2811 71.2565 37.894 57.2256 37.894C43.1948 37.894 31.8206 49.2811 31.8206 63.3279C31.8206 77.3746 43.1948 88.7618 57.2256 88.7618Z" fill="#0165B5"/>
<path d="M67.1053 60.245H62.3579" stroke="white" stroke-width="2" stroke-miterlimit="10" stroke-linecap="round"/>
<path d="M49.7835 60.245H45.0361" stroke="white" stroke-width="2" stroke-miterlimit="10" stroke-linecap="round"/>
<path d="M54.2744 67.3099C54.2744 67.3099 55.4292 66.4108 56.0707 66.4108C56.7123 66.4108 57.867 67.3099 57.867 67.3099" stroke="white" stroke-width="2" stroke-miterlimit="10" stroke-linecap="round"/>
<path d="M139.086 64.9978C147.939 64.9978 154.996 57.8043 154.996 49.0695" stroke="#0165B5" stroke-width="2" stroke-miterlimit="10" stroke-linecap="round"/>
<path d="M155.125 49.0694C155.125 40.2061 147.94 33.1411 139.215 33.1411" stroke="#0165B5" stroke-width="2" stroke-miterlimit="10" stroke-linecap="round"/>
<path d="M139.086 1.28455C130.361 1.28455 123.176 8.47797 123.176 17.2129" stroke="#0165B5" stroke-width="2" stroke-miterlimit="10" stroke-linecap="round"/>
<path d="M123.176 17.2129C123.176 26.0762 130.361 33.1412 139.086 33.1412" stroke="#0165B5" stroke-width="2" stroke-miterlimit="10" stroke-linecap="round"/>
</svg>
