<svg width="335" height="313" viewBox="0 0 335 313" fill="none" xmlns="http://www.w3.org/2000/svg">
<path d="M159.37 184.601C158.03 184.601 156.869 183.529 156.869 182.099V179.419H160.889V143.499C160.889 140.015 163.39 137.155 166.517 137.155H211.273V90.2455C211.273 85.5099 207.432 81.6677 202.697 81.6677H135.697C130.962 81.6677 127.121 85.5099 127.121 90.2455V184.601H160.889H159.37Z" fill="#CCE0F0"/>
<path d="M169.197 81.2209V137.513" stroke="white" stroke-width="2" stroke-miterlimit="10"/>
<path d="M211.452 114.192H127.21" stroke="white" stroke-width="2" stroke-miterlimit="10"/>
<path d="M160.889 153.507H127.21" stroke="white" stroke-width="2" stroke-miterlimit="10"/>
<path d="M140.164 134.207L150.973 123.395" stroke="white" stroke-width="2" stroke-miterlimit="10" stroke-linecap="round"/>
<path d="M139.181 144.303L152.67 130.811" stroke="white" stroke-width="2" stroke-miterlimit="10" stroke-linecap="round"/>
<path d="M184.473 108.205L194.568 98.1085" stroke="white" stroke-width="2" stroke-miterlimit="10" stroke-linecap="round"/>
<path d="M185.456 97.9297L194.925 88.5478" stroke="white" stroke-width="2" stroke-miterlimit="10" stroke-linecap="round"/>
<path d="M248.972 193.804H238.877V200.059H248.972V193.804Z" fill="#99C1E1"/>
<path d="M148.651 193.804H87.9041V198.183H148.651V193.804Z" fill="#99C1E1"/>
<path d="M148.651 218.555H87.9041V222.933H148.651V218.555Z" fill="#99C1E1"/>
<path d="M148.651 244.378H87.9041V248.756H148.651V244.378Z" fill="#99C1E1"/>
<path d="M256.744 193.804H81.9187C80.2213 193.804 78.792 192.375 78.792 190.677V188.086C78.792 186.388 80.2213 184.959 81.9187 184.959H256.744C258.441 184.959 259.871 186.388 259.871 188.086V190.677C259.871 192.375 258.441 193.804 256.744 193.804Z" stroke="#0165B5" stroke-width="2" stroke-miterlimit="10"/>
<path d="M144.541 270.2H92.0134C89.6907 270.2 87.9041 268.324 87.9041 266.09V193.804H148.651V266.09C148.74 268.324 146.864 270.2 144.541 270.2Z" stroke="#0165B5" stroke-width="2" stroke-miterlimit="10"/>
<path d="M240.932 270.2H246.828C248.079 270.2 249.061 269.218 249.061 267.967V193.804H238.699V267.967C238.699 269.218 239.681 270.2 240.932 270.2Z" stroke="#0165B5" stroke-width="2" stroke-miterlimit="10"/>
<path d="M87.9041 218.555H148.74" stroke="#0165B5" stroke-width="2" stroke-miterlimit="10"/>
<path d="M87.9041 244.378H148.74" stroke="#0165B5" stroke-width="2" stroke-miterlimit="10"/>
<path d="M109.076 201.846H127.568" stroke="#0165B5" stroke-width="2" stroke-miterlimit="10" stroke-linecap="round"/>
<path d="M109.076 226.597H127.568" stroke="#0165B5" stroke-width="2" stroke-miterlimit="10" stroke-linecap="round"/>
<path d="M109.076 252.419H127.568" stroke="#0165B5" stroke-width="2" stroke-miterlimit="10" stroke-linecap="round"/>
<path d="M113.989 172.539C124.202 172.539 132.481 164.258 132.481 154.043C132.481 143.828 124.202 135.547 113.989 135.547C103.776 135.547 95.4971 143.828 95.4971 154.043C95.4971 164.258 103.776 172.539 113.989 172.539Z" fill="#0165B5"/>
<path d="M113.989 135.547C107.736 135.547 102.197 138.674 98.8921 143.41C101.929 141.265 105.592 140.015 109.523 140.015C119.707 140.015 128.015 148.324 128.015 158.51C128.015 162.442 126.764 166.195 124.62 169.143C129.355 165.748 132.481 160.297 132.481 154.043C132.481 143.767 124.263 135.547 113.989 135.547Z" fill="#3484C4"/>
<path d="M101.483 135.904C91.4772 142.784 88.9759 156.455 95.9439 166.463C102.823 176.47 116.491 178.972 126.496 172.003" stroke="#0165B5" stroke-width="2" stroke-miterlimit="10" stroke-linecap="round"/>
<path d="M106.753 184.065H121.315V182.099C121.315 181.474 120.779 181.027 120.243 181.027H107.825C107.2 181.027 106.753 181.563 106.753 182.099V184.065Z" fill="#0165B5"/>
<path d="M113.989 182.278V176.202" stroke="#0165B5" stroke-width="2" stroke-miterlimit="10"/>
<path d="M199.571 182.725H188.404C186.617 182.725 185.099 181.295 185.099 179.419H202.787C202.787 181.206 201.357 182.725 199.571 182.725Z" fill="#99C1E1"/>
<path d="M202.34 179.419V180.223C202.34 181.116 201.625 181.831 200.732 181.831H187.242C186.349 181.831 185.634 181.116 185.634 180.223V179.419H156.869V182.099C156.869 183.44 157.941 184.601 159.37 184.601H228.604C229.944 184.601 231.105 183.529 231.105 182.099V179.419H202.34Z" stroke="#0165B5" stroke-width="2" stroke-miterlimit="10"/>
<path d="M160.889 179.419V142.874C160.889 139.747 163.39 137.245 166.517 137.245H221.368C224.494 137.245 226.996 139.747 226.996 142.874V179.419" stroke="#0165B5" stroke-width="2" stroke-miterlimit="10"/>
<path d="M223.958 179.419H163.658V143.321C163.658 142.516 164.284 141.891 165.088 141.891H222.618C223.422 141.891 224.048 142.516 224.048 143.321V179.419H223.958Z" fill="#0165B5"/>
<path opacity="0.4" d="M193.943 141.176C194.584 141.176 195.104 140.656 195.104 140.015C195.104 139.373 194.584 138.853 193.943 138.853C193.301 138.853 192.781 139.373 192.781 140.015C192.781 140.656 193.301 141.176 193.943 141.176Z" fill="#0165B5"/>
<path d="M186.707 165.033L200.107 151.541" stroke="white" stroke-width="2" stroke-miterlimit="10" stroke-linecap="round"/>
<path d="M186.438 170.662L197.605 159.493" stroke="white" stroke-width="2" stroke-miterlimit="10" stroke-linecap="round"/>
</svg>
