<svg width="115" height="207" viewBox="0 0 115 207" fill="none" xmlns="http://www.w3.org/2000/svg">
<path d="M83.249 79.4963H100.931L100.544 74.4632H83.6362L83.249 79.4963Z" fill="#99C1E1"/>
<path d="M100.544 74.4632L102.609 102.209C102.738 103.629 103.255 104.92 103.771 106.081L112.289 122.987C113.193 124.665 113.58 126.6 113.58 128.536V199.386C113.58 202.741 110.87 205.58 107.385 205.58H76.4084C73.0526 205.58 70.2131 202.87 70.2131 199.386V128.536C70.2131 126.6 70.7294 124.665 71.5038 122.987L80.0223 106.081C80.6677 104.791 81.0549 103.5 81.184 102.209L83.249 74.4632" stroke="#0165B5" stroke-width="2" stroke-miterlimit="10" stroke-linecap="round"/>
<path d="M100.802 74.4632H83.3782C82.6038 74.4632 81.9585 73.818 81.9585 73.0437V70.5917C81.9585 69.8174 82.6038 69.1721 83.3782 69.1721H100.802C101.577 69.1721 102.222 69.8174 102.222 70.5917V73.0437C102.222 73.818 101.577 74.4632 100.802 74.4632Z" stroke="#0165B5" stroke-width="2" stroke-miterlimit="10" stroke-linecap="round"/>
<path d="M75.5049 198.483H92.0257" stroke="#0165B5" stroke-width="2" stroke-miterlimit="10" stroke-linecap="round"/>
<path d="M101.448 198.483H108.676" stroke="#0165B5" stroke-width="2" stroke-miterlimit="10" stroke-linecap="round"/>
<path d="M101.061 113.695L99.2537 110.082" stroke="#0165B5" stroke-width="2" stroke-miterlimit="10" stroke-linecap="round"/>
<path d="M107.772 130.214V126.988L103.384 118.212" stroke="#0165B5" stroke-width="2" stroke-miterlimit="10" stroke-linecap="round"/>
<path d="M113.709 137.699V136.408H70.4712V162.606L113.709 137.699Z" fill="#0165B5"/>
<path d="M70.4712 186.61V188.675H113.709V161.703L70.4712 186.61Z" fill="#0165B5"/>
<path opacity="0.4" d="M92.8003 57.6864C94.9388 57.6864 96.6723 55.953 96.6723 53.8148C96.6723 51.6766 94.9388 49.9433 92.8003 49.9433C90.6618 49.9433 88.9282 51.6766 88.9282 53.8148C88.9282 55.953 90.6618 57.6864 92.8003 57.6864Z" fill="#0165B5"/>
<path d="M103.384 45.0393C106.877 45.0393 109.708 42.2081 109.708 38.7157C109.708 35.2233 106.877 32.3922 103.384 32.3922C99.8911 32.3922 97.0596 35.2233 97.0596 38.7157C97.0596 42.2081 99.8911 45.0393 103.384 45.0393Z" fill="#0165B5"/>
<path opacity="0.4" d="M88.9282 32.2631C92.1359 32.2631 94.7363 29.663 94.7363 26.4557C94.7363 23.2484 92.1359 20.6484 88.9282 20.6484C85.7205 20.6484 83.1201 23.2484 83.1201 26.4557C83.1201 29.663 85.7205 32.2631 88.9282 32.2631Z" fill="#0165B5"/>
<path d="M91.8969 5.6783C93.4651 5.6783 94.7364 4.40717 94.7364 2.83915C94.7364 1.27113 93.4651 0 91.8969 0C90.3287 0 89.0574 1.27113 89.0574 2.83915C89.0574 4.40717 90.3287 5.6783 91.8969 5.6783Z" fill="#0165B5"/>
<path d="M103.384 20.7774C105.522 20.7774 107.256 19.0441 107.256 16.9059C107.256 14.7677 105.522 13.0343 103.384 13.0343C101.245 13.0343 99.5117 14.7677 99.5117 16.9059C99.5117 19.0441 101.245 20.7774 103.384 20.7774Z" fill="#0165B5"/>
<path d="M19.6184 205.451H10.9708C7.74413 205.451 5.29183 202.612 5.8081 199.386L8.38947 182.093C10.1964 170.349 11.358 158.347 9.80923 146.474L2.9686 115.115C2.58139 113.179 2.32326 111.114 2.32326 109.178L1.29071 86.7232C1.03257 84.2712 2.9686 82.0773 5.4209 82.0773H18.5859C18.5859 82.0773 15.2301 98.8541 15.2301 143.764C15.2301 188.675 19.6184 205.451 19.6184 205.451Z" fill="#99C1E1"/>
<path d="M45.0449 205.451H10.9708C7.74413 205.451 5.29183 202.612 5.8081 199.386L8.38947 182.093C10.1964 170.349 11.358 158.347 9.80923 146.474L2.9686 115.115C2.58139 113.179 2.32326 111.114 2.32326 109.178L1.29071 86.7232C1.03257 84.2712 2.9686 82.0773 5.4209 82.0773H48.7879C51.2402 82.0773 53.1762 84.2712 52.9181 86.7232L51.8856 109.049C51.7565 111.114 51.4983 113.179 51.1111 115.244L44.6577 143.377C42.8508 157.315 44.5286 171.382 47.2391 185.19L50.0786 199.128C50.853 202.354 48.4007 205.451 45.0449 205.451Z" stroke="#0165B5" stroke-width="2" stroke-miterlimit="10" stroke-linecap="round"/>
<path d="M38.7205 109.953H46.2064" stroke="#0165B5" stroke-width="2" stroke-miterlimit="10" stroke-linecap="round"/>
<path d="M8.64771 109.953H31.1056" stroke="#0165B5" stroke-width="2" stroke-miterlimit="10" stroke-linecap="round"/>
<path d="M13.0359 198.87H28.6532" stroke="#0165B5" stroke-width="2" stroke-miterlimit="10" stroke-linecap="round"/>
<path d="M36.2683 198.87H41.9473" stroke="#0165B5" stroke-width="2" stroke-miterlimit="10" stroke-linecap="round"/>
<path d="M41.8183 81.0449C41.9474 80.7868 41.9473 80.5287 41.9473 80.2706C41.9473 78.7219 40.6567 77.4314 39.1078 77.4314C38.4625 77.4314 37.9462 77.6895 37.43 77.9476C36.9137 76.528 35.4939 75.4956 33.816 75.4956C33.0416 75.4956 32.2672 75.7537 31.6219 76.2699C30.5893 75.6247 29.4277 75.1085 28.137 75.1085C26.7173 75.1085 25.4266 75.6247 24.5231 76.399C23.7487 75.3666 22.458 74.7213 21.1673 74.5923C21.1673 73.1727 20.0057 72.1403 18.715 72.1403C17.5534 72.1403 16.5209 72.9146 16.2627 74.076C15.3592 73.5598 14.4558 73.3017 13.2941 73.3017C10.8418 73.3017 8.64768 74.8504 7.7442 76.9152C7.61514 76.9152 7.357 76.9152 7.22793 76.9152C5.2919 76.9152 3.61401 78.4638 3.61401 80.5287C3.61401 80.7868 3.61401 81.0449 3.74308 81.303H41.8183V81.0449Z" fill="#0165B5"/>
<path d="M13.2941 92.5305C11.4871 92.5305 10.0674 91.1109 10.0674 89.3042V81.0449H16.5208V89.3042C16.5208 91.1109 15.1011 92.5305 13.2941 92.5305Z" fill="#0165B5"/>
</svg>
