<svg width="156" height="228" viewBox="0 0 156 228" fill="none" xmlns="http://www.w3.org/2000/svg">
<path d="M12.4001 226.3C6.20006 226.2 1.20006 221.1 1.30006 214.9L2.00006 164.4C2.10006 158.2 7.20006 153.2 13.4001 153.3" fill="#99C1E1"/>
<path d="M43.4001 226.8L13.0001 226.4C6.40013 226.3 1.10012 220.8 1.20012 214.2L1.90013 165.2C2.00013 158.6 7.50012 153.3 14.1001 153.4L44.5001 153.8C51.1001 153.9 56.4001 159.4 56.3001 166L55.6001 215C55.5001 221.5 50.0001 226.8 43.4001 226.8Z" stroke="#0165B5" stroke-width="2" stroke-miterlimit="10"/>
<path d="M47.4 153.8L29.3 153.6L29.5 142.5C29.5 139.6 32 137.2 34.9 137.2L42.3 137.3C45.2 137.3 47.6001 139.8 47.6001 142.7L47.4 153.8Z" stroke="#0165B5" stroke-width="2" stroke-miterlimit="10"/>
<path d="M23.7001 153.5L10.9001 153.3V152.3C10.9001 149.7 13.1001 147.6 15.7001 147.6H19.0001C21.6001 147.6 23.7001 149.8 23.7001 152.4V153.5Z" stroke="#0165B5" stroke-width="2" stroke-miterlimit="10"/>
<path d="M42.7 137.3L34.3 137.2L34.4 129.5C34.4 127.6 36 126 37.9 126H39.3C41.2 126 42.8 127.6 42.8 129.5L42.7 137.3Z" stroke="#0165B5" stroke-width="2" stroke-miterlimit="10"/>
<path d="M21.7002 193.3L36.3002 185.8" stroke="#0165B5" stroke-width="2" stroke-miterlimit="10" stroke-linecap="round"/>
<path d="M13.3 192.7L26 186.2" stroke="#0165B5" stroke-width="2" stroke-miterlimit="10" stroke-linecap="round"/>
<path d="M61 102.2C73.7025 102.2 84 91.9025 84 79.2C84 66.4974 73.7025 56.2 61 56.2C48.2975 56.2 38 66.4974 38 79.2C38 91.9025 48.2975 102.2 61 102.2Z" fill="#0165B5"/>
<path d="M74.5 109.4C80.5751 109.4 85.5 104.475 85.5 98.4C85.5 92.3248 80.5751 87.4 74.5 87.4C68.4249 87.4 63.5 92.3248 63.5 98.4C63.5 104.475 68.4249 109.4 74.5 109.4Z" fill="#0165B5"/>
<path d="M65.5999 114.7C70.5704 114.7 74.5999 110.671 74.5999 105.7C74.5999 100.729 70.5704 96.7 65.5999 96.7C60.6293 96.7 56.5999 100.729 56.5999 105.7C56.5999 110.671 60.6293 114.7 65.5999 114.7Z" fill="#0165B5"/>
<path d="M74.5999 117.1C78.5764 117.1 81.7999 113.876 81.7999 109.9C81.7999 105.923 78.5764 102.7 74.5999 102.7C70.6235 102.7 67.3999 105.923 67.3999 109.9C67.3999 113.876 70.6235 117.1 74.5999 117.1Z" fill="#0165B5"/>
<path d="M79.4998 119.4C82.0955 119.4 84.1998 117.296 84.1998 114.7C84.1998 112.104 82.0955 110 79.4998 110C76.9041 110 74.7998 112.104 74.7998 114.7C74.7998 117.296 76.9041 119.4 79.4998 119.4Z" fill="#0165B5"/>
<path d="M60.9998 119.4C67.8482 119.4 73.3998 113.848 73.3998 107C73.3998 100.152 67.8482 94.6 60.9998 94.6C54.1515 94.6 48.5999 100.152 48.5999 107C48.5999 113.848 54.1515 119.4 60.9998 119.4Z" fill="#0165B5"/>
<path d="M53.8998 121.1C59.4779 121.1 63.9998 116.578 63.9998 111C63.9998 105.422 59.4779 100.9 53.8998 100.9C48.3217 100.9 43.7998 105.422 43.7998 111C43.7998 116.578 48.3217 121.1 53.8998 121.1Z" fill="#0165B5"/>
<path d="M43.6998 120C46.5165 120 48.7999 117.717 48.7999 114.9C48.7999 112.083 46.5165 109.8 43.6998 109.8C40.8832 109.8 38.5999 112.083 38.5999 114.9C38.5999 117.717 40.8832 120 43.6998 120Z" fill="#0165B5"/>
<path d="M85.5998 125.8C95.7066 125.8 103.9 117.607 103.9 107.5C103.9 97.3931 95.7066 89.2 85.5998 89.2C75.493 89.2 67.2998 97.3931 67.2998 107.5C67.2998 117.607 75.493 125.8 85.5998 125.8Z" fill="#0165B5"/>
<path d="M85.5998 138.5C91.2883 138.5 95.8998 133.888 95.8998 128.2C95.8998 122.511 91.2883 117.9 85.5998 117.9C79.9113 117.9 75.2998 122.511 75.2998 128.2C75.2998 133.888 79.9113 138.5 85.5998 138.5Z" fill="#0165B5"/>
<path d="M84.1998 143.9C87.0165 143.9 89.2999 141.617 89.2999 138.8C89.2999 135.983 87.0165 133.7 84.1998 133.7C81.3832 133.7 79.0999 135.983 79.0999 138.8C79.0999 141.617 81.3832 143.9 84.1998 143.9Z" fill="#0165B5"/>
<path d="M53.2999 67.5C71.7462 67.5 86.6999 52.5463 86.6999 34.0999C86.6999 15.6536 71.7462 0.699951 53.2999 0.699951C34.8536 0.699951 19.8999 15.6536 19.8999 34.0999C19.8999 52.5463 34.8536 67.5 53.2999 67.5Z" fill="#0165B5"/>
<path d="M49.1 7.59996C67.5 7.59996 82.5 22.5 82.5 41C82.5 46 81.4 50.7 79.4 55C83.9 49.3 86.7 42.1 86.7 34.2C86.7 15.8 71.8 0.799957 53.3 0.799957C39.9 0.799957 28.3 8.69995 23 20.2C29.1 12.5 38.5 7.59996 49.1 7.59996Z" fill="#3484C4"/>
<path d="M98.1999 66.5C113.277 66.5 125.5 54.2773 125.5 39.2C125.5 24.1226 113.277 11.9 98.1999 11.9C83.1225 11.9 70.8999 24.1226 70.8999 39.2C70.8999 54.2773 83.1225 66.5 98.1999 66.5Z" fill="#0165B5"/>
<path d="M94.8 17.5C109.9 17.5 122.1 29.7 122.1 44.8C122.1 48.9 121.2 52.7 119.6 56.2C123.3 51.5 125.5 45.6 125.5 39.2C125.5 24.1 113.3 11.9 98.2 11.9C87.2 11.9 77.8 18.4 73.5 27.7C78.4 21.5 86.1 17.5 94.8 17.5Z" fill="#3484C4"/>
<path d="M79.4998 94.3999C93.4174 94.3999 104.7 83.1175 104.7 69.1999C104.7 55.2824 93.4174 43.9999 79.4998 43.9999C65.5822 43.9999 54.2998 55.2824 54.2998 69.1999C54.2998 83.1175 65.5822 94.3999 79.4998 94.3999Z" fill="#0165B5"/>
<path d="M76.2999 49.1999C90.1999 49.1999 101.5 60.4999 101.5 74.3999C101.5 78.1999 100.7 81.6999 99.1998 84.9999C102.6 80.6999 104.7 75.1999 104.7 69.2999C104.7 55.4 93.3998 44.0999 79.4998 44.0999C69.3998 44.0999 60.5999 50.0999 56.5999 58.6999C61.1999 52.8999 68.2999 49.1999 76.2999 49.1999Z" fill="#3484C4"/>
<path d="M140.6 188L153.8 199.5C155.2 200.7 155.3 202.9 154.1 204.3L150.2 208.7C149 210.1 146.8 210.3 145.4 209.1L132.2 197.6" fill="#99C1E1"/>
<path d="M144.8 208.6L90.3002 161C88.6002 159.5 88.4002 156.9 89.9002 155.2L92.9002 151.8C94.4002 150.1 97.0002 149.9 98.7002 151.4L153.2 199C154.9 200.5 155.1 203.1 153.6 204.8L150.6 208.2C149.1 209.9 146.5 210.1 144.8 208.6Z" stroke="#0165B5" stroke-width="2" stroke-miterlimit="10"/>
<path d="M88.5001 158.1L84.8001 154.9C83.7001 153.9 83.6001 152.3 84.5001 151.2L88.1001 147C89.1001 145.9 90.7001 145.8 91.8001 146.7L95.5001 149.9L88.5001 158.1Z" fill="#0165B5"/>
<path d="M137.955 184.369L135.093 181.87L126.741 191.437L129.604 193.935L137.955 184.369Z" fill="#0165B5"/>
<path opacity="0.4" d="M85.7 193.3C86.4732 193.3 87.1001 192.673 87.1001 191.9C87.1001 191.127 86.4732 190.5 85.7 190.5C84.9268 190.5 84.3 191.127 84.3 191.9C84.3 192.673 84.9268 193.3 85.7 193.3Z" fill="#0165B5"/>
<path opacity="0.4" d="M83.4001 199.7C84.1181 199.7 84.7001 199.118 84.7001 198.4C84.7001 197.682 84.1181 197.1 83.4001 197.1C82.6821 197.1 82.1001 197.682 82.1001 198.4C82.1001 199.118 82.6821 199.7 83.4001 199.7Z" fill="#0165B5"/>
<path opacity="0.4" d="M86.6 202.2C86.9314 202.2 87.2 201.931 87.2 201.6C87.2 201.269 86.9314 201 86.6 201C86.2686 201 86 201.269 86 201.6C86 201.931 86.2686 202.2 86.6 202.2Z" fill="#0165B5"/>
<path d="M82.3 188.8C82.9075 188.8 83.3999 188.307 83.3999 187.7C83.3999 187.092 82.9075 186.6 82.3 186.6C81.6924 186.6 81.2 187.092 81.2 187.7C81.2 188.307 81.6924 188.8 82.3 188.8Z" fill="#0165B5"/>
<path opacity="0.4" d="M80.7 168.6C82.3017 168.6 83.6001 167.302 83.6001 165.7C83.6001 164.098 82.3017 162.8 80.7 162.8C79.0984 162.8 77.8 164.098 77.8 165.7C77.8 167.302 79.0984 168.6 80.7 168.6Z" fill="#0165B5"/>
<path d="M83.6 176.8C84.6493 176.8 85.5 175.949 85.5 174.9C85.5 173.851 84.6493 173 83.6 173C82.5506 173 81.7 173.851 81.7 174.9C81.7 175.949 82.5506 176.8 83.6 176.8Z" fill="#0165B5"/>
<path d="M77.6 184C79.0359 184 80.2 182.836 80.2 181.4C80.2 179.964 79.0359 178.8 77.6 178.8C76.1641 178.8 75 179.964 75 181.4C75 182.836 76.1641 184 77.6 184Z" fill="#0165B5"/>
</svg>
