<svg width="219" height="153" viewBox="0 0 219 153" fill="none" xmlns="http://www.w3.org/2000/svg">
<g clip-path="url(#clip0)">
<path d="M126.121 148.273C124.876 151.383 120.518 152.627 116.285 151.134L5.85157 109.463C1.61849 107.846 -0.871564 103.99 0.248959 100.881" fill="#CCE0F0"/>
<path d="M178.163 95.4073L103.462 4.22928C100.598 0.746354 95.369 0.248793 91.883 3.10977L50.9216 36.5707L145.917 72.3951C150.15 74.0122 152.267 78.739 150.773 82.9683L126.868 146.283C125.25 150.512 120.519 152.627 116.41 151.134C119.149 152.254 122.386 151.88 124.752 149.89L177.043 106.976C180.529 104.115 181.151 98.8903 178.163 95.4073Z" fill="#CCE0F0" stroke="#0165B5" stroke-width="2" stroke-miterlimit="10"/>
<path d="M113.048 149.89L8.96403 110.583C2.9879 108.344 -0.000157215 101.751 2.24089 95.7805L23.7798 38.6854C26.0209 32.7146 32.744 29.7293 38.7201 31.9683L142.929 71.2756C148.905 73.5146 151.893 80.2317 149.652 86.2025L128.113 143.298C125.747 149.144 119.024 152.129 113.048 149.89Z" stroke="#0165B5" stroke-width="2" stroke-miterlimit="10"/>
<path d="M149.03 87.4463L150.524 83.5902C152.267 79.1122 149.901 74.0122 145.419 72.2707L36.1057 30.9732C31.6237 29.2317 26.519 31.5951 24.776 36.0732L23.282 39.9293L149.03 87.4463Z" fill="#0165B5"/>
<path d="M149.03 87.4463L150.524 83.5902C152.267 79.1122 149.901 74.0122 145.419 72.2707L36.1057 30.9732C31.6237 29.2317 26.519 31.5951 24.776 36.0732L23.282 39.9293L149.03 87.4463Z" stroke="#0165B5" stroke-width="2" stroke-miterlimit="10"/>
<path d="M37.5996 94.5366C37.4751 93.0439 37.7241 91.8 37.7241 91.8L32.3705 89.8098C32.3705 89.8098 32.246 91.1781 31.1255 92.1732" fill="#CCE0F0"/>
<path d="M27.2661 98.0195L33.3667 88.5659L38.2223 90.4317L36.9773 101.378" fill="#0165B5"/>
<path d="M48.3069 86.7C47.9334 86.3269 47.4354 86.3269 46.8129 86.4512C47.1864 85.8293 47.4354 85.2073 47.6844 84.5854C49.9255 78.4903 47.9334 72.1464 43.0778 70.2805C38.2222 68.4147 32.4951 71.8976 30.2541 77.9927C30.0051 78.6147 29.7561 79.361 29.6315 79.983C29.258 79.4854 28.76 79.1122 28.262 79.2366C27.3905 79.361 26.768 80.6049 27.017 82.0976C27.266 83.5903 28.1375 84.8342 29.1335 84.7098C29.258 84.7098 29.258 84.7098 29.3825 84.7098C29.8806 88.1927 31.7481 91.1781 34.7362 92.2976C37.7242 93.4171 41.0858 92.5464 43.8248 90.183C43.8248 90.3073 43.9493 90.3073 43.9493 90.4317C44.5719 91.0537 46.0659 90.8049 47.3109 89.8098C48.5559 88.6903 48.9294 87.4464 48.3069 86.7Z" fill="#0165B5"/>
<path d="M44.6964 109.837C47.0619 103.617 42.4553 100.134 37.4752 97.0244C36.7282 99.139 34.6117 99.5122 32.4951 98.7659C30.3786 98.0195 29.1336 96.2781 29.8806 94.2878C29.8806 94.2878 29.8806 94.2878 30.0051 94.2878C24.1535 93.2927 18.3018 92.9195 15.9363 99.0147" fill="#0165B5"/>
<path d="M30.3787 77.6195C30.7522 78.739 32.7442 70.7781 40.8369 73.7634C46.4395 75.8781 47.4355 79.2366 48.805 78.739C52.7891 77.122 51.6686 71.5244 44.6965 68.9122C33.2422 64.6829 29.8806 76.0025 30.3787 77.6195Z" fill="#0165B5"/>
<path d="M41.2102 108.841L20.0448 100.88C15.6872 99.2634 13.4462 94.2878 15.0647 89.9342L24.5269 64.8073C26.1454 60.4537 31.1255 58.2147 35.4831 59.8317L56.6486 67.7927C61.0062 69.4098 63.2472 74.3854 61.6287 78.739L52.1665 103.866C50.4234 108.344 45.5678 110.459 41.2102 108.841Z" stroke="#0165B5" stroke-width="2" stroke-miterlimit="10"/>
<path d="M79.3081 86.5756L104.209 95.9049" stroke="#0165B5" stroke-width="2" stroke-miterlimit="10" stroke-linecap="round"/>
<path d="M111.181 98.5171L130.977 105.981" stroke="#0165B5" stroke-width="2" stroke-miterlimit="10" stroke-linecap="round"/>
<path d="M93.3767 100.383L128.237 113.444" stroke="#0165B5" stroke-width="2" stroke-miterlimit="10" stroke-linecap="round"/>
<path d="M76.4446 93.9147L87.7743 98.2683" stroke="#0165B5" stroke-width="2" stroke-miterlimit="10" stroke-linecap="round"/>
<path d="M114.542 137.451L68.9743 120.285C66.7333 119.415 65.7373 117.051 66.4843 114.812L66.6088 114.315C67.4803 112.076 69.8458 111.081 72.0869 111.827L117.655 128.993C119.896 129.863 120.892 132.227 120.145 134.466L120.02 134.963C119.149 137.078 116.659 138.198 114.542 137.451Z" fill="#0165B5"/>
<path d="M117.032 117.673L125.374 120.783" stroke="#0165B5" stroke-width="2" stroke-miterlimit="10" stroke-linecap="round"/>
<path d="M82.9187 104.737L110.807 115.31" stroke="#0165B5" stroke-width="2" stroke-miterlimit="10" stroke-linecap="round"/>
<path d="M171.44 42.1683H217.755" stroke="#0165B5" stroke-width="2" stroke-miterlimit="10" stroke-linecap="round"/>
<path d="M145.17 30.3512H197.71" stroke="#0165B5" stroke-width="2" stroke-miterlimit="10" stroke-linecap="round"/>
<path d="M156.873 53.9854H185.882" stroke="#0165B5" stroke-width="2" stroke-miterlimit="10" stroke-linecap="round"/>
<path d="M181.525 65.8025H212.152" stroke="#0165B5" stroke-width="2" stroke-miterlimit="10" stroke-linecap="round"/>
</g>
<defs>
<clipPath id="clip0">
<rect width="219" height="153" fill="white"/>
</clipPath>
</defs>
</svg>
