<svg width="195" height="123" viewBox="0 0 195 123" fill="none" xmlns="http://www.w3.org/2000/svg">
<path d="M140.61 90.14H10.28C5.18 90.14 1 85.96 1 80.86V10.28C1 5.18 5.18 1 10.28 1H140.61C145.71 1 149.89 5.18 149.89 10.28V80.86C149.89 85.97 145.72 90.14 140.61 90.14Z" stroke="#0165B5" stroke-width="2" stroke-miterlimit="10"/>
<path d="M137.18 77.77H13.7201C10.6301 77.77 8.1001 75.24 8.1001 72.15V13.6C8.1001 10.51 10.6301 7.97998 13.7201 7.97998H137.18C140.27 7.97998 142.8 10.51 142.8 13.6V72.15C142.8 75.24 140.27 77.77 137.18 77.77Z" fill="#0165B5"/>
<path d="M75.4501 86.81C77.1622 86.81 78.5501 85.4221 78.5501 83.71C78.5501 81.9979 77.1622 80.61 75.4501 80.61C73.738 80.61 72.3501 81.9979 72.3501 83.71C72.3501 85.4221 73.738 86.81 75.4501 86.81Z" fill="#0165B5"/>
<path d="M68.5298 54.34L96.9898 25.88" stroke="white" stroke-width="2" stroke-miterlimit="10" stroke-linecap="round"/>
<path d="M53.8999 59.87L77.6099 36.17" stroke="white" stroke-width="2" stroke-miterlimit="10" stroke-linecap="round"/>
<path d="M131.88 103.34H19.01C17.38 103.34 16.05 102.02 16.05 100.38V99.44C16.05 97.81 17.37 96.48 19.01 96.48H131.88C133.51 96.48 134.84 97.8 134.84 99.44V100.38C134.83 102.01 133.51 103.34 131.88 103.34Z" stroke="#0165B5" stroke-width="2" stroke-miterlimit="10"/>
<path d="M95.4699 90.14H55.4199V96.39H95.4699V90.14Z" fill="#99C1E1" stroke="#0165B5" stroke-width="2" stroke-miterlimit="10"/>
<path d="M177.91 90.3199H109.02C105.87 90.3199 103.29 92.9 103.29 96.05V107.31C103.29 110.46 105.87 113.04 109.02 113.04H177.91" fill="white"/>
<path d="M177.91 90.3199H109.02C105.87 90.3199 103.29 92.9 103.29 96.05V107.31C103.29 110.46 105.87 113.04 109.02 113.04H177.91" stroke="#0165B5" stroke-width="2" stroke-miterlimit="10" stroke-linecap="round"/>
<path d="M171.01 90.3199V113.04" stroke="#0165B5" stroke-width="2" stroke-miterlimit="10" stroke-linecap="round"/>
<path d="M136.36 95.3799H171.01" stroke="#0165B5" stroke-width="2" stroke-miterlimit="10" stroke-linecap="round"/>
<path d="M119.53 95.3799H129.52" stroke="#0165B5" stroke-width="2" stroke-miterlimit="10" stroke-linecap="round"/>
<path d="M155.41 101.68H171.01" stroke="#0165B5" stroke-width="2" stroke-miterlimit="10" stroke-linecap="round"/>
<path d="M150.86 107.98H171.01" stroke="#0165B5" stroke-width="2" stroke-miterlimit="10" stroke-linecap="round"/>
<path d="M134.33 101.68H148.34" stroke="#0165B5" stroke-width="2" stroke-miterlimit="10" stroke-linecap="round"/>
<path d="M129.52 107.98H140.6" stroke="#0165B5" stroke-width="2" stroke-miterlimit="10" stroke-linecap="round"/>
<path d="M115.66 122.63H121.17C123.38 122.63 125.17 120.84 125.17 118.63V101.68H111.66V118.63C111.66 120.84 113.45 122.63 115.66 122.63Z" fill="#0165B5"/>
<path d="M125.32 67.59H187.31C190.46 67.59 193.04 70.17 193.04 73.32V84.58C193.04 87.73 190.46 90.31 187.31 90.31H125.32" fill="white"/>
<path d="M125.32 67.59H187.31C190.46 67.59 193.04 70.17 193.04 73.32V84.58C193.04 87.73 190.46 90.31 187.31 90.31H125.32" stroke="#0165B5" stroke-width="2" stroke-miterlimit="10" stroke-linecap="round"/>
<path d="M125.32 67.59V90.32" stroke="#0165B5" stroke-width="2" stroke-miterlimit="10" stroke-linecap="round"/>
<path d="M159.97 72.6599H125.32" stroke="#0165B5" stroke-width="2" stroke-miterlimit="10" stroke-linecap="round"/>
<path d="M176.79 72.6599H166.8" stroke="#0165B5" stroke-width="2" stroke-miterlimit="10" stroke-linecap="round"/>
<path d="M140.91 78.95H125.32" stroke="#0165B5" stroke-width="2" stroke-miterlimit="10" stroke-linecap="round"/>
<path d="M145.46 85.25H125.32" stroke="#0165B5" stroke-width="2" stroke-miterlimit="10" stroke-linecap="round"/>
<path d="M162 78.95H147.98" stroke="#0165B5" stroke-width="2" stroke-miterlimit="10" stroke-linecap="round"/>
<path d="M166.8 85.25H155.73" stroke="#0165B5" stroke-width="2" stroke-miterlimit="10" stroke-linecap="round"/>
<path d="M180.67 99.91H175.16C172.95 99.91 171.16 98.12 171.16 95.91V78.96H184.67V95.91C184.67 98.11 182.88 99.91 180.67 99.91Z" fill="white" stroke="#0165B5" stroke-width="2" stroke-miterlimit="10" stroke-linecap="round"/>
</svg>
