<svg width="176" height="134" viewBox="0 0 176 134" fill="none" xmlns="http://www.w3.org/2000/svg">
<g clip-path="url(#clip0)">
<path d="M90.1702 118.89H117.72L117.08 113.29H90.6802L90.1702 118.89Z" fill="#99C1E1"/>
<path d="M164.91 1H42.8601C37.7349 1 33.5801 5.1548 33.5801 10.28V104.01C33.5801 109.135 37.7349 113.29 42.8601 113.29H164.91C170.035 113.29 174.19 109.135 174.19 104.01V10.28C174.19 5.1548 170.035 1 164.91 1Z" stroke="#0165B5" stroke-width="2" stroke-miterlimit="10"/>
<path d="M174.19 18.4H33.9502V90.62H174.19V18.4Z" fill="#0165B5"/>
<path d="M33.9502 90.62H174.19" stroke="#0165B5" stroke-width="2" stroke-miterlimit="10"/>
<path d="M103.88 106.77C106.089 106.77 107.88 104.979 107.88 102.77C107.88 100.561 106.089 98.77 103.88 98.77C101.671 98.77 99.8801 100.561 99.8801 102.77C99.8801 104.979 101.671 106.77 103.88 106.77Z" fill="#0165B5"/>
<path opacity="0.4" d="M103.88 12.9C105.261 12.9 106.38 11.7807 106.38 10.4C106.38 9.01931 105.261 7.90002 103.88 7.90002C102.499 7.90002 101.38 9.01931 101.38 10.4C101.38 11.7807 102.499 12.9 103.88 12.9Z" fill="#0165B5"/>
<path d="M90.6901 113.29L88.7801 125.82C88.6999 126.548 88.7742 127.285 88.998 127.982C89.2218 128.679 89.5901 129.322 90.0789 129.867C90.5677 130.413 91.166 130.849 91.8347 131.147C92.5035 131.446 93.2277 131.6 93.96 131.6H113.89C114.622 131.6 115.347 131.446 116.015 131.147C116.684 130.849 117.282 130.413 117.771 129.867C118.26 129.322 118.628 128.679 118.852 127.982C119.076 127.285 119.15 126.548 119.07 125.82L117.12 113.29" stroke="#0165B5" stroke-width="2" stroke-miterlimit="10"/>
<path d="M95.1501 71.92L131.85 35.23" stroke="white" stroke-width="2" stroke-miterlimit="10" stroke-linecap="round"/>
<path d="M76.29 79.06L106.85 48.49" stroke="white" stroke-width="2" stroke-miterlimit="10" stroke-linecap="round"/>
<path d="M42.24 34.62H10.05C5.05182 34.62 1 38.6718 1 43.67V123.13C1 128.128 5.05182 132.18 10.05 132.18H42.24C47.2382 132.18 51.29 128.128 51.29 123.13V43.67C51.29 38.6718 47.2382 34.62 42.24 34.62Z" fill="#F5F9FC"/>
<path d="M42.24 34.62H10.05C5.05182 34.62 1 38.6718 1 43.67V123.13C1 128.128 5.05182 132.18 10.05 132.18H42.24C47.2382 132.18 51.29 128.128 51.29 123.13V43.67C51.29 38.6718 47.2382 34.62 42.24 34.62Z" stroke="#0165B5" stroke-width="2" stroke-miterlimit="10"/>
<path d="M44.24 46.39H7.76004C6.25782 46.39 5.04004 47.6078 5.04004 49.11V113.86C5.04004 115.362 6.25782 116.58 7.76004 116.58H44.24C45.7423 116.58 46.96 115.362 46.96 113.86V49.11C46.96 47.6078 45.7423 46.39 44.24 46.39Z" fill="#0165B5"/>
<path d="M26 126.89C28.2091 126.89 30 125.099 30 122.89C30 120.681 28.2091 118.89 26 118.89C23.7909 118.89 22 120.681 22 122.89C22 125.099 23.7909 126.89 26 126.89Z" fill="#0165B5"/>
<path opacity="0.4" d="M21.25 42.5699C22.3546 42.5699 23.25 41.6745 23.25 40.5699C23.25 39.4654 22.3546 38.5699 21.25 38.5699C20.1454 38.5699 19.25 39.4654 19.25 40.5699C19.25 41.6745 20.1454 42.5699 21.25 42.5699Z" fill="#0165B5"/>
<path opacity="0.4" d="M26 40.5699H33.36" stroke="#0165B5" stroke-width="2" stroke-miterlimit="10" stroke-linecap="round"/>
<path d="M20.6201 92.95L32.0901 81.48" stroke="white" stroke-width="2" stroke-miterlimit="10" stroke-linecap="round"/>
<path d="M12.8601 92.36L36.0601 69.16" stroke="white" stroke-width="2" stroke-miterlimit="10" stroke-linecap="round"/>
</g>
<defs>
<clipPath id="clip0">
<rect width="175.19" height="133.18" fill="white"/>
</clipPath>
</defs>
</svg>
