<svg width="196" height="183" viewBox="0 0 196 183" fill="none" xmlns="http://www.w3.org/2000/svg">
<path d="M119.325 74.307C119.207 74.4247 118.971 74.5425 118.852 74.6602C116.844 75.7201 113.772 73.7182 112 70.1853C110.228 66.6525 110.346 63.1197 112.236 62.0599C113.3 61.4711 114.599 61.8243 115.899 62.7664C115.662 61 115.544 59.1158 115.544 57.3494C115.544 41.805 124.051 28.9691 134.92 27.2027C121.215 25.2008 113.181 20.4904 111.646 44.8668C111.055 62.7664 102.549 81.4904 107.511 88.4382C109.283 91.029 118.971 93.5019 130.194 94.6796C131.966 91.7355 133.148 88.6738 133.738 87.1429C127.713 85.612 122.515 80.9016 119.325 74.307Z" fill="#0165B5"/>
<path d="M170.954 85.1409C168.355 69.8321 166.819 62.8842 166.346 54.2876C166.11 48.8707 165.401 36.6236 160.911 30.7355C158.549 27.556 154.768 26.1429 151.46 26.8494C148.388 27.556 145.435 27.7915 142.599 27.6737C152.169 30.971 159.257 42.8649 159.257 57.1139C159.257 58.9981 159.139 60.7645 158.903 62.5309C160.203 61.5888 161.502 61.3533 162.566 61.8243C164.574 62.8842 164.692 66.5348 162.802 69.9498C161.03 73.4826 157.958 75.4846 155.949 74.4247C155.713 74.307 155.595 74.1892 155.477 74.0714C152.405 80.4305 147.561 85.0232 142.009 86.6718C142.481 88.0849 143.663 91.8533 145.553 95.1506C159.848 95.2683 172.253 92.4421 170.954 85.1409Z" fill="#0165B5"/>
<path d="M133.857 86.4363C133.857 86.4363 132.911 89.2625 131.375 92.4421C133.266 93.2664 135.392 93.6197 137.519 93.6197C139.764 93.6197 142.008 93.1486 144.017 92.2066C142.599 89.1448 141.89 86.4363 141.89 86.4363" fill="#CCE0F0"/>
<path d="M141.89 86.4363C141.89 86.4363 145.435 101.863 152.523 101.863" stroke="#0165B5" stroke-width="2" stroke-miterlimit="10"/>
<path d="M122.042 101.745C129.131 101.745 133.857 86.4363 133.857 86.4363" stroke="#0165B5" stroke-width="2" stroke-miterlimit="10"/>
<path d="M162.683 62.0599C161.62 61.4711 160.321 61.8243 159.021 62.7664C159.257 61 159.375 59.1158 159.375 57.3494C159.375 40.6274 149.57 26.9672 137.401 26.9672C125.232 26.9672 115.426 40.5097 115.426 57.3494C115.426 59.2336 115.544 61 115.781 62.7664C114.481 61.8243 113.181 61.5888 112.118 62.0599C110.11 63.1197 109.992 66.7703 111.882 70.1853C113.654 73.7182 116.726 75.7201 118.734 74.6602C118.97 74.5425 119.089 74.4247 119.207 74.307C123.105 82.3147 129.84 87.6139 137.401 87.6139C144.962 87.6139 151.578 82.3147 155.595 74.307C155.713 74.4247 155.949 74.5425 156.067 74.6602C158.076 75.7201 161.148 73.7182 162.92 70.1853C164.81 66.6525 164.692 63.0019 162.683 62.0599Z" stroke="#0165B5" stroke-width="2" stroke-miterlimit="10"/>
<path d="M116.305 70.5523C116.644 70.3572 116.364 69.2402 115.679 68.0574C114.994 66.8746 114.163 66.074 113.824 66.2691C113.485 66.4642 113.766 67.5812 114.451 68.764C115.136 69.9467 115.966 70.7474 116.305 70.5523Z" fill="#0165B5"/>
<path d="M159.375 68.0657C158.667 69.2433 158.43 70.4209 158.785 70.5386C159.139 70.7742 159.966 69.9498 160.675 68.7722C161.384 67.5946 161.62 66.417 161.266 66.2993C160.911 66.0637 160.084 66.8881 159.375 68.0657Z" fill="#0165B5"/>
<path d="M126.886 61.2355C127.995 61.2355 128.895 60.3392 128.895 59.2336C128.895 58.128 127.995 57.2317 126.886 57.2317C125.777 57.2317 124.878 58.128 124.878 59.2336C124.878 60.3392 125.777 61.2355 126.886 61.2355Z" fill="#0165B5"/>
<path d="M148.152 61.2355C149.261 61.2355 150.16 60.3392 150.16 59.2336C150.16 58.128 149.261 57.2317 148.152 57.2317C147.043 57.2317 146.144 58.128 146.144 59.2336C146.144 60.3392 147.043 61.2355 148.152 61.2355Z" fill="#0165B5"/>
<path d="M137.519 56.6429C137.519 60.1757 137.873 61.2355 137.046 62.2954C136.219 63.473 134.684 63.5907 134.684 64.2973C134.684 65.1216 136.928 65.8282 138.346 65.8282" stroke="#0165B5" stroke-width="2" stroke-miterlimit="10" stroke-linecap="round"/>
<path d="M120.979 49.5772C123.46 47.4575 125.705 46.6332 128.658 47.4575" stroke="#0165B5" stroke-width="2" stroke-miterlimit="10" stroke-linecap="round"/>
<path d="M153.941 49.5772C151.46 47.4575 150.279 47.1042 146.262 47.4575" stroke="#0165B5" stroke-width="2" stroke-miterlimit="10" stroke-linecap="round"/>
<path d="M134.447 71.4807H141.772" stroke="#0165B5" stroke-width="2" stroke-miterlimit="10" stroke-linecap="round"/>
<path d="M133.502 24.7297C130.194 30.5 135.747 39.4498 142.245 43.2182C148.506 46.8687 158.194 47.3398 161.62 42.6294C165.519 37.0946 160.321 24.9653 151.342 21.3147C145.435 18.8417 136.456 19.5483 133.502 24.7297Z" fill="#0165B5"/>
<path d="M137.401 23.3166C133.857 18.3707 115.544 22.8456 113.3 33.0907C112.827 35.3282 113.418 36.388 115.426 39.0965C117.08 41.2162 112.827 44.5135 115.19 45.1023C119.679 46.0444 130.549 43.6892 135.274 39.2143C140.709 33.7973 139.527 26.0251 137.401 23.3166Z" fill="#0165B5"/>
<path d="M123.696 43.9247C127.949 44.749 135.865 44.749 136.574 38.1544" stroke="#0165B5" stroke-width="2" stroke-miterlimit="10" stroke-linecap="round"/>
<path d="M131.494 150.851C131.612 151.676 131.73 152.382 131.73 153.207V167.691C131.73 173.932 127.595 179.232 122.042 181.116C122.16 181.116 122.16 181.116 122.279 181.116C126.768 181.587 131.612 181.822 136.574 181.822C161.62 181.822 182.059 166.16 184.068 150.851H131.494Z" fill="#0165B5"/>
<path d="M182.768 135.896C178.633 118.467 165.991 104.571 149.924 99.5077C149.333 105.631 144.135 110.342 137.755 110.342C131.139 110.342 125.823 105.16 125.586 98.8011C108.219 103.158 94.5146 117.525 90.2615 135.896" fill="#0165B5"/>
<path d="M118.025 27.6737C118.38 27.0849 121.57 21.1969 127.004 19.666C132.557 18.0174 135.392 22.3745 135.629 22.7278" stroke="#0165B5" stroke-width="2" stroke-miterlimit="10" stroke-linecap="round"/>
<path d="M194.11 145.905C194.11 148.614 191.274 150.851 187.612 150.851H131.139C127.595 150.851 124.641 148.614 124.641 145.905" fill="#CCE0F0"/>
<path d="M73.1309 136.131H189.03C192.219 136.131 194.819 138.722 194.819 141.902V144.963C194.819 148.143 192.219 150.734 189.03 150.734H131.612" stroke="#0165B5" stroke-width="2" stroke-miterlimit="10"/>
<path d="M34.8523 64.8861C37.3334 67.9479 45.3671 89.4981 67.8144 89.1448C88.4895 88.9093 93.3334 58.4093 97.2321 54.8765C97.8228 54.2877 96.0506 45.6911 96.5232 45.1023C104.321 34.5039 94.3966 20.6081 70.2954 20.6081C30.8355 20.7259 32.0169 55.3475 35.0886 63.5908C35.3249 64.0618 34.6161 64.6506 34.8523 64.8861Z" fill="#CCE0F0"/>
<path d="M103.021 64.4151C101.485 63.7085 99.595 64.0618 97.7047 65.2394C98.0591 62.8842 98.1772 60.529 98.1772 58.056C98.1772 35.917 83.8819 17.8996 66.2785 17.8996C48.6751 17.8996 34.3798 35.917 34.3798 58.056C34.3798 60.529 34.6161 62.8842 34.8523 65.2394C32.962 64.0618 31.0718 63.7085 29.5359 64.4151C26.7004 65.7104 26.4642 70.5386 29.1815 75.1313C31.7806 79.7239 36.2701 82.4324 39.1055 81.0193C39.3418 80.9016 39.5781 80.666 39.8144 80.5483C43.7131 87.4961 49.1477 92.9131 55.5274 95.7394L50.6836 114.346L83.7637 118.467L77.2658 95.7394C83.6456 92.7954 89.0802 87.4961 92.8608 80.5483C93.0971 80.7838 93.3334 80.9016 93.5696 81.0193C96.4051 82.3147 100.895 79.7239 103.494 75.1313C106.093 70.5386 105.975 65.7104 103.021 64.4151Z" stroke="#0165B5" stroke-width="2" stroke-miterlimit="10"/>
<path d="M118.734 136.838C118.734 114.228 99.8311 108.693 79.983 104.571H52.2193C52.2193 104.571 52.2193 104.571 52.4556 104.454C32.3712 108.34 13.2319 114.11 13.2319 136.602V139.075L118.852 139.311V136.838H118.734Z" fill="#0165B5"/>
<path d="M33.789 58.056C36.27 61.1178 45.367 82.5502 67.8143 82.1969C88.3712 81.8437 92.7425 50.5193 96.6413 46.9865C107.51 37.2124 95.8143 13.6602 70.2953 13.6602C28.2362 13.6602 30.1265 53.3456 33.789 58.056Z" fill="#0165B5"/>
<path d="M1.1814 150.851C1.1814 144.492 7.56114 139.311 15.3586 139.311H117.553C125.35 139.311 131.73 144.492 131.73 150.851" fill="#CCE0F0"/>
<path d="M117.553 181.822H15.3586C7.56114 181.822 1.1814 175.463 1.1814 167.691V153.207C1.1814 145.434 7.56114 139.075 15.3586 139.075H117.553C125.35 139.075 131.73 145.434 131.73 153.207V167.691C131.73 175.463 125.35 181.822 117.553 181.822Z" stroke="#0165B5" stroke-width="2" stroke-miterlimit="10"/>
</svg>
