<svg width="173" height="163" viewBox="0 0 173 163" fill="none" xmlns="http://www.w3.org/2000/svg">
<path d="M9.52885 54.1211C4.87034 54.3333 1.05884 58.2598 1.05884 63.1413V135.515C1.05884 140.503 4.97622 144.535 9.84648 144.535L9.52885 54.1211Z" fill="#99C1E1"/>
<path d="M48.385 54.121V51.2558C48.385 49.664 47.1145 48.2844 45.5264 48.2844H12.3875C10.7994 48.2844 9.52885 49.5579 9.52885 51.2558V54.121C4.87034 54.3333 1.05884 58.2597 1.05884 63.1412V135.515C1.05884 140.502 4.97622 144.535 9.84648 144.535H47.9615C52.8318 144.535 56.7492 140.502 56.7492 135.515V63.1412C56.855 58.2597 53.0435 54.2271 48.385 54.121Z" stroke="#0165B5" stroke-width="2" stroke-miterlimit="10"/>
<path d="M44.4678 136.895H51.032" stroke="#0165B5" stroke-width="2" stroke-miterlimit="10" stroke-linecap="round"/>
<path d="M7.19971 136.895H37.6917" stroke="#0165B5" stroke-width="2" stroke-miterlimit="10" stroke-linecap="round"/>
<path d="M44.4678 60.7004H51.032" stroke="#0165B5" stroke-width="2" stroke-miterlimit="10" stroke-linecap="round"/>
<path d="M7.19971 60.7004H37.6917" stroke="#0165B5" stroke-width="2" stroke-miterlimit="10" stroke-linecap="round"/>
<path d="M1.05884 93.916V101.557L56.855 79.2715V71.6309L1.05884 93.916Z" fill="#0165B5"/>
<path d="M1.05884 118.43V126.07L56.855 103.785V96.1445L1.05884 118.43Z" fill="#0165B5"/>
<path d="M28.6924 48.2845L39.8093 42.4479" stroke="#0165B5" stroke-width="2" stroke-miterlimit="10" stroke-linecap="round"/>
<path opacity="0.4" d="M25.6217 40.8561C27.142 40.8561 28.3744 39.6208 28.3744 38.097C28.3744 36.5732 27.142 35.3379 25.6217 35.3379C24.1013 35.3379 22.8689 36.5732 22.8689 38.097C22.8689 39.6208 24.1013 40.8561 25.6217 40.8561Z" fill="#0165B5"/>
<path d="M33.0329 31.8359C35.4888 31.8359 37.4797 29.8405 37.4797 27.3789C37.4797 24.9174 35.4888 22.9219 33.0329 22.9219C30.5771 22.9219 28.5862 24.9174 28.5862 27.3789C28.5862 29.8405 30.5771 31.8359 33.0329 31.8359Z" fill="#0165B5"/>
<path opacity="0.4" d="M22.869 22.7096C25.0909 22.7096 26.8922 20.9042 26.8922 18.6771C26.8922 16.45 25.0909 14.6445 22.869 14.6445C20.647 14.6445 18.8457 16.45 18.8457 18.6771C18.8457 20.9042 20.647 22.7096 22.869 22.7096Z" fill="#0165B5"/>
<path d="M24.8805 4.03255C25.9915 4.03255 26.8922 3.12983 26.8922 2.01628C26.8922 0.902717 25.9915 0 24.8805 0C23.7695 0 22.8689 0.902717 22.8689 2.01628C22.8689 3.12983 23.7695 4.03255 24.8805 4.03255Z" fill="#0165B5"/>
<path d="M33.033 14.6446C34.5533 14.6446 35.7858 13.4093 35.7858 11.8855C35.7858 10.3616 34.5533 9.12634 33.033 9.12634C31.5127 9.12634 30.2803 10.3616 30.2803 11.8855C30.2803 13.4093 31.5127 14.6446 33.033 14.6446Z" fill="#0165B5"/>
<path d="M127.05 32.7911L75.1713 63.7781L67.1248 54.3334C65.8543 52.8477 66.066 50.5131 67.5483 49.2396L107.357 15.0691C108.84 13.7956 111.169 14.0079 112.439 15.4936L127.05 32.7911Z" fill="#0165B5"/>
<path d="M79.8298 38.7338L92.0055 52.9538" stroke="white" stroke-width="2" stroke-miterlimit="10"/>
<path d="M94.97 25.7872L109.263 42.5542" stroke="white" stroke-width="2" stroke-miterlimit="10"/>
<path d="M98.8872 48.6029L122.921 27.9095" stroke="white" stroke-width="2" stroke-miterlimit="10"/>
<path d="M129.909 122.568C127.368 124.691 123.662 124.372 121.439 121.932L72.3127 64.3086L78.9829 62.6107" fill="#99C1E1"/>
<path d="M169.93 88.2918L129.909 122.568C127.368 124.691 123.662 124.373 121.439 121.932L72.3127 64.3087L128.85 30.881L170.565 79.8022C172.682 82.3491 172.365 86.1694 169.93 88.2918Z" stroke="#0165B5" stroke-width="2" stroke-miterlimit="10" stroke-linecap="round"/>
<path d="M130.862 49.1336L76.4418 63.2475L73.1597 65.2638L138.485 52.5294L128.744 30.881L130.862 49.1336Z" fill="#99C1E1"/>
<path d="M128.744 30.881L130.862 49.1336L72.3127 64.3087" stroke="#0165B5" stroke-width="2" stroke-miterlimit="10"/>
<path d="M117.098 82.4552L135.52 103.998" stroke="#0165B5" stroke-width="2" stroke-miterlimit="10" stroke-linecap="round"/>
<path d="M100.264 62.7169L108.945 72.9044" stroke="#0165B5" stroke-width="2" stroke-miterlimit="10" stroke-linecap="round"/>
<path d="M125.78 61.974L137.532 75.6635" stroke="#0165B5" stroke-width="2" stroke-miterlimit="10" stroke-linecap="round"/>
<path d="M144.837 84.153L153.837 76.4062" stroke="#0165B5" stroke-width="2" stroke-miterlimit="10" stroke-linecap="round"/>
<path d="M119.109 106.226L123.98 101.981" stroke="#0165B5" stroke-width="2" stroke-miterlimit="10" stroke-linecap="round"/>
<path d="M98.7815 82.4552L105.134 77.1492" stroke="#0165B5" stroke-width="2" stroke-miterlimit="10" stroke-linecap="round"/>
<path d="M149.496 89.6713L152.46 93.1732" stroke="#0165B5" stroke-width="2" stroke-miterlimit="10" stroke-linecap="round"/>
<path d="M45.6322 82.1367C50.1849 104.528 50.1849 127.556 45.6322 149.947L44.2559 156.739V161.302C44.2559 162.257 45.1029 163 46.1616 163H108.628C109.687 163 110.534 162.257 110.534 161.302V156.739L109.051 149.735C104.499 127.45 104.499 104.634 108.946 82.455L110.534 74.8144V70.888C110.534 69.9329 109.687 69.1901 108.628 69.1901H46.1616C45.1029 69.1901 44.2559 69.9329 44.2559 70.888V75.345L45.6322 82.1367ZM59.9254 115.14C59.9254 105.483 67.7601 97.5241 77.5007 97.5241C87.2412 97.5241 95.0759 105.377 95.0759 115.14C95.0759 124.797 87.2412 132.756 77.5007 132.756C67.7601 132.756 59.9254 124.797 59.9254 115.14Z" fill="#0165B5"/>
<path d="M106.616 75.345H63.6309" stroke="white" stroke-width="2" stroke-miterlimit="10" stroke-linecap="round"/>
<path d="M55.4786 75.345H48.5967" stroke="white" stroke-width="2" stroke-miterlimit="10" stroke-linecap="round"/>
<path d="M48.1733 156.739H91.2645" stroke="white" stroke-width="2" stroke-miterlimit="10" stroke-linecap="round"/>
<path d="M99.417 156.739H106.299" stroke="white" stroke-width="2" stroke-miterlimit="10" stroke-linecap="round"/>
</svg>
