<svg width="375" height="196" viewBox="0 0 375 196" fill="none" xmlns="http://www.w3.org/2000/svg">
<path d="M375 97.0691C375 97.0691 304.92 113.407 184.51 121.512C64.1 129.617 0 196 0 196V131.578C0 131.578 33.27 83.8088 183.66 54.9668C334.05 26.1248 375 0 375 0V97.0691Z" fill="#F5F9FC"/>
<g clip-path="url(#clip0)">
<path d="M202.154 99.8625C202.076 99.9402 201.92 100.018 201.842 100.096C200.517 100.795 198.489 99.4739 197.32 97.1422C196.15 94.8106 196.228 92.4789 197.476 91.7794C198.178 91.3908 199.035 91.624 199.893 92.2458C199.737 91.0799 199.659 89.8364 199.659 88.6705C199.659 78.4112 205.273 69.9395 212.447 68.7737C203.402 67.4524 198.1 64.3435 197.086 80.432C196.696 92.2458 191.082 104.604 194.357 109.189C195.526 110.899 201.92 112.531 209.328 113.308C210.498 111.365 211.277 109.345 211.667 108.334C207.69 107.324 204.26 104.215 202.154 99.8625Z" fill="#0165B5"/>
<path d="M236.229 107.013C234.514 96.9091 233.5 92.3235 233.188 86.6498C233.032 83.0746 232.564 74.9915 229.601 71.1054C228.042 69.0069 225.547 68.0742 223.363 68.5405C221.336 69.0069 219.387 69.1623 217.515 69.0846C223.831 71.2608 228.51 79.1107 228.51 88.5151C228.51 89.7586 228.432 90.9245 228.276 92.0903C229.134 91.4685 229.991 91.3131 230.693 91.624C232.019 92.3235 232.097 94.7329 230.849 96.9868C229.679 99.3185 227.652 100.64 226.326 99.9402C226.171 99.8625 226.093 99.7848 226.015 99.7071C223.987 103.904 220.79 106.935 217.125 108.023C217.437 108.956 218.217 111.443 219.465 113.619C228.9 113.697 237.087 111.832 236.229 107.013Z" fill="#0165B5"/>
<path d="M211.745 107.868C211.745 107.868 211.122 109.733 210.108 111.832C211.356 112.376 212.759 112.609 214.163 112.609C215.644 112.609 217.126 112.298 218.451 111.676C217.516 109.656 217.048 107.868 217.048 107.868" fill="#CCE0F0"/>
<path d="M217.047 107.868C217.047 107.868 219.387 118.05 224.065 118.05" stroke="#0165B5" stroke-width="2" stroke-miterlimit="10"/>
<path d="M203.948 117.972C208.626 117.972 211.745 107.868 211.745 107.868" stroke="#0165B5" stroke-width="2" stroke-miterlimit="10"/>
<path d="M230.771 91.7794C230.069 91.3908 229.212 91.624 228.354 92.2458C228.51 91.0799 228.588 89.8364 228.588 88.6706C228.588 77.634 222.116 68.6183 214.085 68.6183C206.053 68.6183 199.581 77.5563 199.581 88.6706C199.581 89.9141 199.659 91.0799 199.815 92.2458C198.957 91.624 198.1 91.4686 197.398 91.7794C196.072 92.4789 195.994 94.8883 197.242 97.1423C198.412 99.4739 200.439 100.795 201.765 100.096C201.92 100.018 201.998 99.9403 202.076 99.8625C204.65 105.148 209.094 108.645 214.085 108.645C219.075 108.645 223.441 105.148 226.093 99.8625C226.171 99.9403 226.327 100.018 226.405 100.096C227.73 100.795 229.757 99.4739 230.927 97.1423C232.175 94.8106 232.097 92.4012 230.771 91.7794Z" stroke="#0165B5" stroke-width="2" stroke-miterlimit="10"/>
<path d="M200.161 97.3845C200.385 97.2557 200.2 96.5185 199.748 95.7379C199.296 94.9573 198.748 94.4288 198.524 94.5576C198.3 94.6864 198.485 95.4236 198.937 96.2042C199.39 96.9849 199.938 97.5133 200.161 97.3845Z" fill="#0165B5"/>
<path d="M228.588 95.7433C228.12 96.5205 227.964 97.2978 228.198 97.3755C228.432 97.5309 228.978 96.9869 229.445 96.2097C229.913 95.4324 230.069 94.6552 229.835 94.5775C229.601 94.422 229.056 94.9661 228.588 95.7433Z" fill="#0165B5"/>
<path d="M207.145 91.2353C207.877 91.2353 208.47 90.6438 208.47 89.914C208.47 89.1843 207.877 88.5928 207.145 88.5928C206.413 88.5928 205.819 89.1843 205.819 89.914C205.819 90.6438 206.413 91.2353 207.145 91.2353Z" fill="#0165B5"/>
<path d="M221.18 91.2353C221.912 91.2353 222.506 90.6438 222.506 89.914C222.506 89.1843 221.912 88.5928 221.18 88.5928C220.448 88.5928 219.854 89.1843 219.854 89.914C219.854 90.6438 220.448 91.2353 221.18 91.2353Z" fill="#0165B5"/>
<path d="M214.162 88.2042C214.162 90.5359 214.396 91.2354 213.851 91.9349C213.305 92.7121 212.291 92.7898 212.291 93.2562C212.291 93.8002 213.773 94.2665 214.708 94.2665" stroke="#0165B5" stroke-width="2" stroke-miterlimit="10" stroke-linecap="round"/>
<path d="M203.246 83.5409C204.884 82.1419 206.365 81.5978 208.314 82.1419" stroke="#0165B5" stroke-width="2" stroke-miterlimit="10" stroke-linecap="round"/>
<path d="M225.001 83.5409C223.364 82.1419 222.584 81.9087 219.933 82.1419" stroke="#0165B5" stroke-width="2" stroke-miterlimit="10" stroke-linecap="round"/>
<path d="M212.135 97.9972H216.97" stroke="#0165B5" stroke-width="2" stroke-miterlimit="10" stroke-linecap="round"/>
<path d="M211.511 67.1416C209.328 70.95 212.993 76.8569 217.281 79.344C221.414 81.7534 227.808 82.0643 230.069 78.9554C232.642 75.3025 229.212 67.2971 223.285 64.8877C219.387 63.2555 213.461 63.7219 211.511 67.1416Z" fill="#0165B5"/>
<path d="M214.085 66.209C211.745 62.9446 199.659 65.8981 198.178 72.6599C197.866 74.1366 198.256 74.8361 199.581 76.6237C200.673 78.0227 197.866 80.1989 199.425 80.5875C202.388 81.2093 209.562 79.6549 212.681 76.7014C216.268 73.1262 215.488 67.9966 214.085 66.209Z" fill="#0165B5"/>
<path d="M205.04 79.8102C207.847 80.3543 213.071 80.3543 213.539 76.0018" stroke="#0165B5" stroke-width="2" stroke-miterlimit="10" stroke-linecap="round"/>
<path d="M210.186 150.382C210.264 150.926 210.342 151.392 210.342 151.936V161.496C210.342 165.615 207.613 169.113 203.948 170.356C204.026 170.356 204.026 170.356 204.104 170.356C207.067 170.667 210.264 170.823 213.539 170.823C230.069 170.823 243.559 160.486 244.884 150.382H210.186Z" fill="#0165B5"/>
<path d="M244.027 140.511C241.298 129.008 232.954 119.837 222.35 116.495C221.96 120.537 218.529 123.645 214.318 123.645C209.952 123.645 206.443 120.226 206.287 116.029C194.825 118.904 185.78 128.386 182.973 140.511" fill="#0165B5"/>
<path d="M201.296 69.0846C201.53 68.696 203.636 64.8099 207.222 63.7995C210.887 62.7114 212.759 65.5871 212.915 65.8203" stroke="#0165B5" stroke-width="2" stroke-miterlimit="10" stroke-linecap="round"/>
<path d="M251.513 147.118C251.513 148.905 249.641 150.382 247.224 150.382H209.952C207.613 150.382 205.664 148.905 205.664 147.118" fill="#CCE0F0"/>
<path d="M171.667 140.667H248.16C250.265 140.667 251.98 142.377 251.98 144.475V146.496C251.98 148.594 250.265 150.304 248.16 150.304H210.264" stroke="#0165B5" stroke-width="2" stroke-miterlimit="10"/>
<path d="M146.402 93.6447C148.04 95.6655 153.342 109.889 168.157 109.655C181.803 109.5 185 89.37 187.573 87.0384C187.963 86.6498 186.793 80.976 187.105 80.5874C192.251 73.5925 185.702 64.4213 169.795 64.4213C143.751 64.499 144.531 87.3493 146.558 92.7898C146.714 93.1007 146.246 93.4893 146.402 93.6447Z" fill="#CCE0F0"/>
<path d="M191.394 93.3339C190.38 92.8675 189.133 93.1007 187.885 93.8779C188.119 92.3235 188.197 90.769 188.197 89.1369C188.197 74.5251 178.762 62.6337 167.144 62.6337C155.525 62.6337 146.091 74.5251 146.091 89.1369C146.091 90.769 146.246 92.3235 146.402 93.8779C145.155 93.1007 143.907 92.8675 142.894 93.3339C141.022 94.1888 140.866 97.3754 142.66 100.407C144.375 103.438 147.338 105.225 149.21 104.293C149.365 104.215 149.521 104.059 149.677 103.982C152.251 108.567 155.837 112.143 160.048 114.008L156.851 126.288L178.684 129.008L174.395 114.008C178.606 112.065 182.193 108.567 184.688 103.982C184.844 104.137 185 104.215 185.156 104.293C187.027 105.148 189.99 103.438 191.706 100.407C193.421 97.3754 193.343 94.1888 191.394 93.3339Z" stroke="#0165B5" stroke-width="2" stroke-miterlimit="10"/>
<path d="M201.764 141.133C201.764 126.21 189.288 122.557 176.189 119.837H157.864C157.864 119.837 157.864 119.837 158.02 119.759C144.765 122.324 132.133 126.133 132.133 140.978V142.61L201.842 142.765V141.133H201.764Z" fill="#0165B5"/>
<path d="M145.7 89.1369C147.338 91.1577 153.342 105.303 168.157 105.07C181.725 104.837 184.61 84.1627 187.183 81.831C194.357 75.3801 186.637 59.8357 169.795 59.8357C142.036 59.8357 143.283 86.028 145.7 89.1369Z" fill="#0165B5"/>
<path d="M124.18 150.383C124.18 146.186 128.39 142.766 133.537 142.766H200.985C206.131 142.766 210.342 146.186 210.342 150.383" fill="#CCE0F0"/>
<path d="M200.985 170.823H133.537C128.39 170.823 124.18 166.626 124.18 161.496V151.936C124.18 146.807 128.39 142.61 133.537 142.61H200.985C206.131 142.61 210.342 146.807 210.342 151.936V161.496C210.342 166.626 206.131 170.823 200.985 170.823Z" stroke="#0165B5" stroke-width="2" stroke-miterlimit="10"/>
</g>
<defs>
<clipPath id="clip0">
<rect width="129.36" height="120.78" fill="white" transform="translate(123.4 50.8199)"/>
</clipPath>
</defs>
</svg>
