<svg width="153" height="48" viewBox="0 0 153 48" fill="none" xmlns="http://www.w3.org/2000/svg">
<rect x="105" width="48" height="48" rx="24" fill="#E5BBBD"/>
<path d="M119.91 20.4271V29.6312C119.91 31.9188 124.031 33.773 129.114 33.773C134.198 33.773 138.319 31.9188 138.319 29.6312V20.4271" stroke="white" stroke-width="1.5" stroke-miterlimit="10" stroke-linecap="round" stroke-linejoin="round"/>
<path d="M134.637 35.1537L136.938 38.3752H132.336L134.637 35.1537ZM134.637 35.1537V22.2681" stroke="white" stroke-width="1.5" stroke-miterlimit="10" stroke-linecap="round" stroke-linejoin="round"/>
<path d="M129.114 25.0296L116.229 18.5868L129.114 12.1439L142 18.5868L129.114 25.0296Z" stroke="white" stroke-width="1.5" stroke-miterlimit="10" stroke-linecap="round" stroke-linejoin="round"/>
<circle cx="24" cy="24" r="24" fill="#29C4CF"/>
<circle cx="24" cy="24" r="24" fill="#29C4CF"/>
<path d="M18.5599 23.3999C16.8387 24.3075 15.5515 25.9475 14.8928 27.882C14.2612 29.7368 15.1258 31.7261 16.8702 32.6184C18.4414 33.4221 20.7909 34.1999 23.9999 34.1999C27.2089 34.1999 29.5584 33.4221 31.1296 32.6184C32.874 31.7261 33.7386 29.7368 33.107 27.882C32.4483 25.9475 31.1611 24.3075 29.4399 23.3999" stroke="white" stroke-width="1.5" stroke-linecap="round" stroke-linejoin="round"/>
<path d="M21.15 20.1249C21.6746 20.1249 22.0999 19.6995 22.0999 19.1749C22.0999 18.6502 21.6746 18.2249 21.15 18.2249C20.6253 18.2249 20.2 18.6502 20.2 19.1749C20.2 19.6995 20.6253 20.1249 21.15 20.1249Z" fill="white"/>
<path d="M26.8499 20.1249C27.3746 20.1249 27.7999 19.6995 27.7999 19.1749C27.7999 18.6502 27.3746 18.2249 26.8499 18.2249C26.3252 18.2249 25.8999 18.6502 25.8999 19.1749C25.8999 19.6995 26.3252 20.1249 26.8499 20.1249Z" fill="white"/>
<path d="M16.875 17.5606C18.965 14.8056 22.575 17.9406 26.565 14.3306C28.465 17.3706 31.03 17.5606 31.03 17.5606" stroke="white" stroke-width="1.5" stroke-linecap="round" stroke-linejoin="round"/>
<path d="M24 25.3499C27.935 25.3499 31.125 22.1599 31.125 18.2249C31.125 14.2898 27.935 11.0999 24 11.0999C20.065 11.0999 16.875 14.2898 16.875 18.2249C16.875 22.1599 20.065 25.3499 24 25.3499Z" stroke="white" stroke-width="1.5" stroke-linecap="round" stroke-linejoin="round"/>
<path d="M58 20L65.5 24.3301V15.6699L58 20ZM64.5 20.75H68.8333V19.25H64.5V20.75ZM73.1667 20.75H77.5V19.25H73.1667V20.75ZM81.8333 20.75H84V19.25H81.8333V20.75Z" fill="#AAACAD"/>
<path d="M96 28L88.5 23.6699V32.3301L96 28ZM89.25 27.25H84.75V28.75H89.25V27.25ZM80.25 27.25H75.75V28.75H80.25V27.25ZM71.25 27.25H69V28.75H71.25V27.25Z" fill="#AAACAD"/>
</svg>
